<?xml version="1.0" standalone="no"?>
<!DOCTYPE svg PUBLIC "-//W3C//DTD SVG 20010904//EN"
 "http://www.w3.org/TR/2001/REC-SVG-20010904/DTD/svg10.dtd">
<svg version="1.0" xmlns="http://www.w3.org/2000/svg"
 width="900.000000pt" height="900.000000pt" viewBox="0 0 900.000000 900.000000"
 preserveAspectRatio="xMidYMid meet">

<g transform="translate(0.000000,900.000000) scale(0.100000,-0.100000)"
fill="#000000" stroke="none">
<path d="M1872 8230 c-241 -65 -422 -248 -477 -481 -26 -110 -61 -99 313 -99
l327 1 170 190 c94 105 184 208 202 228 l32 38 -62 40 c-101 66 -193 94 -322
99 -88 3 -125 0 -183 -16z"/>
<path d="M6183 6433 c-12 -2 -33 -16 -47 -30 l-26 -26 0 -974 0 -975 29 -29
29 -29 792 0 c872 0 826 -3 849 62 17 48 15 1915 -2 1948 -7 14 -28 33 -47 42
-32 17 -90 18 -795 17 -418 -1 -770 -4 -782 -6z m1467 -171 c41 -38 49 -81 41
-230 0 -13 -14 -37 -30 -53 l-29 -29 -667 0 c-422 0 -673 4 -685 10 -10 5 -23
25 -29 42 -13 41 -12 218 1 218 6 0 8 6 5 14 -7 17 28 51 43 41 5 -3 7 -12 4
-18 -4 -7 -3 -8 2 -4 5 5 10 13 10 18 1 5 2 11 3 14 0 3 294 5 651 5 l650 -1
30 -27z m-710 -872 l0 -280 -305 0 -305 0 0 246 c0 148 4 253 10 264 24 45 49
49 333 50 l267 0 0 -280z m631 242 l29 -32 0 -245 0 -245 -310 0 -310 0 0 273
c0 151 3 277 7 281 4 4 130 6 281 4 l274 -3 29 -33z m-633 -849 l2 -283 -265
0 c-282 0 -310 4 -335 49 -6 12 -10 116 -10 265 l0 245 23 4 c12 2 148 3 302
3 l280 -1 3 -282z m657 30 l0 -253 -28 -27 -27 -28 -278 0 -277 0 -3 270 c-1
148 0 276 3 283 4 11 64 13 307 10 l303 -3 0 -252z"/>
<path d="M7606 6271 c-3 -5 1 -11 9 -15 8 -3 15 -1 15 4 0 13 -18 22 -24 11z"/>
<path d="M6276 6253 c-6 -14 -5 -15 5 -6 7 7 10 15 7 18 -3 3 -9 -2 -12 -12z"/>
<path d="M6309 6233 c-13 -16 -12 -17 4 -4 9 7 17 15 17 17 0 8 -8 3 -21 -13z"/>
<path d="M6260 6205 c-7 -9 -8 -15 -2 -15 5 0 12 7 16 15 3 8 4 15 2 15 -2 0
-9 -7 -16 -15z"/>
<path d="M6607 5564 c-4 -4 -7 -38 -7 -76 l0 -68 -70 0 -70 0 0 -30 0 -30 70
0 70 0 0 -75 0 -75 35 0 35 0 0 75 0 75 70 0 70 0 0 30 0 30 -70 0 -69 0 -3
73 c-3 69 -4 72 -28 75 -14 2 -29 0 -33 -4z"/>
<path d="M7172 5388 c2 -18 6 -32 11 -30 4 1 57 2 117 2 l110 0 0 30 0 30
-121 0 -120 0 3 -32z"/>
<path d="M6685 4880 l-49 -50 -47 46 c-48 47 -73 53 -86 18 -4 -11 9 -31 40
-62 l47 -47 -52 -52 -52 -53 22 -22 22 -22 53 52 53 52 49 -50 49 -50 23 22
24 22 -51 50 -50 51 52 52 c51 51 51 53 33 73 -10 11 -21 20 -24 20 -4 0 -29
-23 -56 -50z"/>
<path d="M7120 4850 l0 -30 170 0 170 0 0 30 0 30 -170 0 -170 0 0 -30z"/>
<path d="M7120 4710 l0 -30 170 0 170 0 0 30 0 30 -170 0 -170 0 0 -30z"/>
<path d="M5345 4021 c-78 -48 -103 -119 -100 -286 1 -66 0 -151 -3 -188 l-5
-68 -66 -34 c-36 -18 -77 -44 -90 -58 l-23 -26 21 -29 c11 -16 37 -37 57 -47
44 -21 69 -12 109 38 l28 34 38 -38 c22 -22 52 -40 71 -44 18 -3 193 -5 389
-3 l356 3 35 27 c45 34 69 86 77 163 11 99 57 145 144 145 29 0 55 -8 78 -23
33 -22 34 -26 40 -102 7 -93 33 -152 81 -187 33 -23 34 -23 398 -26 201 -2
375 0 388 3 12 3 40 21 61 40 l39 35 16 -25 c29 -44 60 -58 100 -45 34 11 86
61 86 81 0 19 -53 59 -116 89 l-64 30 0 202 c0 175 -3 209 -19 243 -25 57 -81
102 -133 110 -24 3 -194 5 -379 3 l-336 -3 -37 -29 c-46 -35 -73 -77 -81 -128
l-7 -38 -113 0 c-62 0 -120 -3 -129 -6 -11 -4 -16 0 -16 12 0 71 -49 145 -115
175 -36 17 -72 19 -395 19 -328 0 -357 -1 -385 -19z m735 -74 c69 -46 75 -68
75 -292 0 -223 -7 -254 -69 -298 -30 -22 -36 -22 -343 -22 -301 0 -312 1 -340
21 -61 46 -68 71 -71 270 -2 111 1 197 7 222 13 46 53 99 85 112 12 5 156 9
322 9 296 1 302 1 334 -22z m1276 -21 c53 -56 57 -77 52 -307 -3 -191 -11
-218 -71 -263 -28 -20 -39 -21 -340 -21 -307 0 -313 0 -343 22 -61 44 -68 75
-69 298 0 184 2 203 21 235 11 19 35 45 54 57 32 23 38 23 343 23 l310 0 43
-44z"/>
<path d="M3850 2770 l0 -170 60 0 60 0 -2 168 -3 167 -57 3 -58 3 0 -171z"/>
<path d="M4030 2770 l0 -170 765 0 765 0 0 170 0 170 -765 0 -765 0 0 -170z"/>
<path d="M5620 2770 l0 -170 34 0 33 0 8 159 c4 88 4 165 0 170 -3 6 -22 11
-41 11 l-34 0 0 -170z"/>
<path d="M3994 2765 c0 -93 2 -133 3 -88 2 45 2 122 0 170 -1 48 -3 12 -3 -82z"/>
</g>
</svg>
