<?xml version="1.0" standalone="no"?>
<!DOCTYPE svg PUBLIC "-//W3C//DTD SVG 20010904//EN"
 "http://www.w3.org/TR/2001/REC-SVG-20010904/DTD/svg10.dtd">
<svg version="1.0" xmlns="http://www.w3.org/2000/svg"
 width="3000.000000pt" height="2000.000000pt" viewBox="0 0 3000.000000 2000.000000"
 preserveAspectRatio="xMidYMid meet">

<g transform="translate(0.000000,2000.000000) scale(0.100000,-0.100000)"
fill="#000000" stroke="none">
<path d="M15240 17712 c0 -4 27 -20 59 -35 221 -101 339 -297 329 -547 -6
-142 -24 -183 -163 -370 -63 -85 -115 -158 -115 -162 0 -25 30 7 119 127 129
173 146 201 167 271 22 71 24 224 5 304 -32 134 -121 266 -232 341 -82 55
-169 92 -169 71z"/>
<path d="M14596 17498 c-119 -179 -137 -407 -46 -589 22 -44 212 -303 231
-315 33 -20 9 20 -85 145 -58 78 -114 158 -125 179 -55 108 -70 271 -37 386
18 63 65 162 97 208 12 16 15 29 10 33 -6 3 -26 -18 -45 -47z"/>
<path d="M6467 17420 c-141 -36 -238 -162 -272 -354 -47 -275 19 -717 151
-1005 19 -41 34 -75 34 -77 0 -2 -48 33 -107 77 -59 44 -119 87 -135 95 -56
29 -113 -12 -106 -77 2 -26 13 -40 48 -66 25 -18 98 -75 163 -126 l118 -92
-233 -6 c-255 -7 -369 -24 -540 -80 -187 -61 -392 -192 -489 -312 -133 -165
-126 -338 17 -419 136 -76 289 -51 459 74 33 24 233 192 444 372 l385 327 94
-93 c89 -89 282 -308 282 -322 0 -3 -34 -6 -75 -6 -146 0 -322 -52 -445 -132
-89 -57 -206 -179 -262 -274 -26 -43 -62 -122 -79 -174 -27 -80 -33 -110 -33
-192 -1 -54 -3 -98 -6 -98 -3 0 -57 10 -120 21 -194 34 -733 37 -730 4 1 -5 9
-9 18 -7 9 1 109 5 222 9 307 8 546 -24 866 -118 597 -174 1275 -588 1814
-1108 58 -55 108 -101 113 -101 19 0 -1 24 -98 119 l-104 103 23 23 c42 42
126 76 285 117 86 22 164 41 174 42 16 1 26 -26 68 -179 83 -303 240 -770 296
-878 27 -52 32 -17 6 46 -294 716 -543 1830 -543 2428 l0 112 -46 -6 c-25 -2
-80 -22 -122 -42 -90 -45 -206 -155 -261 -248 -70 -120 -114 -287 -129 -487
l-7 -105 -44 100 c-24 55 -79 171 -122 259 -44 87 -79 163 -79 168 0 21 79
177 123 243 61 94 157 201 242 272 132 110 215 195 240 247 61 126 32 261 -66
311 -115 60 -307 -47 -432 -241 -103 -159 -148 -310 -170 -571 l-12 -137 -49
85 c-73 125 -224 349 -321 474 -47 60 -85 119 -85 131 0 12 16 54 37 94 49 99
145 194 308 306 281 192 380 343 362 552 -19 228 -162 320 -354 227 -74 -36
-186 -148 -241 -241 -112 -189 -156 -374 -169 -706 l-6 -176 -136 141 c-128
132 -136 143 -133 176 5 53 53 233 126 466 115 372 146 524 146 716 0 177 -31
254 -123 300 -46 24 -126 32 -180 19z m430 -2238 c124 -176 383 -615 383 -650
0 -8 -8 -10 -25 -6 -35 9 -210 -13 -297 -37 -104 -28 -281 -119 -360 -183
l-67 -55 -53 23 c-29 13 -107 42 -173 65 -66 23 -126 44 -134 47 -8 2 8 15 39
31 83 41 155 123 247 279 215 366 350 575 370 574 5 -1 36 -40 70 -88z m1316
-883 l23 -136 -58 -32 c-72 -40 -148 -115 -205 -203 -43 -67 -117 -223 -143
-301 -6 -21 -14 -36 -16 -34 -2 2 -20 58 -39 123 -18 65 -43 146 -54 179 l-21
60 30 62 c43 87 132 177 305 307 83 62 151 112 152 111 2 -1 13 -62 26 -136z
m-790 -61 c111 -249 243 -638 219 -646 -7 -2 -9 -8 -6 -13 3 -6 -48 31 -113
82 -104 81 -401 284 -491 335 -18 10 -31 22 -30 26 2 4 56 64 122 133 112 119
196 185 237 185 11 0 31 -33 62 -102z"/>
<path d="M15055 17283 c-11 -3 -31 -16 -45 -29 l-26 -24 -39 21 c-100 51 -195
-39 -182 -171 8 -70 66 -241 152 -441 73 -172 79 -183 92 -178 6 2 -23 81 -64
174 -100 231 -153 397 -153 476 0 56 3 64 34 95 38 38 70 43 116 19 26 -14 28
-17 19 -47 -15 -53 -15 -134 1 -152 18 -23 52 -16 67 14 15 28 9 85 -14 140
-14 34 -13 36 12 58 31 26 72 28 103 4 l23 -18 -20 -62 c-25 -72 -28 -164 -6
-182 18 -15 52 -5 65 20 13 23 16 123 6 177 -7 40 -6 43 23 57 37 20 54 20 90
1 36 -18 61 -70 61 -125 0 -81 -101 -336 -204 -515 -31 -54 -56 -102 -56 -106
0 -64 144 197 225 407 65 166 74 242 37 311 -32 59 -113 81 -172 47 -26 -16
-29 -16 -56 4 -34 24 -61 31 -89 25z m125 -190 c0 -75 -6 -93 -32 -93 -19 0
-20 4 -15 58 14 129 47 154 47 35z m-173 13 c6 -46 -9 -82 -28 -70 -10 6 -12
58 -3 103 9 43 25 26 31 -33z"/>
<path d="M17835 17203 c-126 -10 -165 -16 -165 -24 0 -5 40 -6 93 -3 112 6
140 12 132 24 -3 6 -9 9 -13 8 -4 -1 -25 -3 -47 -5z"/>
<path d="M18080 17203 c0 -11 218 -28 228 -19 11 12 -7 16 -116 22 -73 5 -112
4 -112 -3z"/>
<path d="M18500 17171 c0 -6 3 -11 8 -11 4 0 48 -7 97 -15 106 -17 115 -18
115 -6 0 8 -56 20 -172 37 -33 4 -48 3 -48 -5z"/>
<path d="M17412 17150 c-35 -8 -49 -17 -40 -25 8 -8 108 16 108 26 0 10 -21
10 -68 -1z"/>
<path d="M18910 17093 c0 -10 211 -66 218 -58 10 10 -6 16 -94 41 -92 25 -124
29 -124 17z"/>
<path d="M8890 17060 c0 -16 104 -165 115 -165 15 0 9 12 -47 98 -46 71 -68
92 -68 67z"/>
<path d="M19305 16980 c-4 -6 2 -13 12 -17 10 -4 56 -22 103 -40 92 -36 100
-38 100 -24 0 17 -207 94 -215 81z"/>
<path d="M8510 16923 c0 -3 31 -58 69 -122 184 -309 402 -737 553 -1086 296
-682 481 -1325 543 -1895 9 -85 21 -159 26 -165 36 -37 -37 478 -111 791 -99
418 -274 919 -483 1385 -208 463 -597 1175 -597 1092z"/>
<path d="M19690 16813 c0 -8 180 -103 193 -103 4 0 7 4 7 9 0 10 -171 101
-189 101 -6 0 -11 -3 -11 -7z"/>
<path d="M9101 16724 c19 -43 103 -184 110 -184 5 0 9 3 9 8 0 17 -96 176
-109 180 -7 3 -12 1 -10 -4z"/>
<path d="M20050 16613 c0 -7 157 -111 182 -121 4 -2 8 1 8 7 0 12 -163 121
-180 121 -5 0 -10 -3 -10 -7z"/>
<path d="M20390 16381 c0 -9 144 -129 165 -138 37 -14 8 21 -67 81 -82 65 -98
74 -98 57z"/>
<path d="M9300 16370 c0 -22 91 -190 100 -185 5 3 -12 48 -38 100 -42 86 -62
113 -62 85z"/>
<path d="M14893 16363 c-43 -17 8 -23 187 -23 181 0 230 6 184 24 -19 7 -353
7 -371 -1z"/>
<path d="M8560 16243 c0 -4 38 -219 85 -478 46 -258 179 -999 295 -1645 116
-646 224 -1249 240 -1340 17 -91 30 -168 30 -173 0 -4 7 -7 15 -7 11 0 14 7
10 23 -6 30 -28 148 -149 827 -116 645 -281 1564 -414 2309 -55 306 -92 486
-100 489 -6 2 -12 0 -12 -5z"/>
<path d="M14863 16203 c-13 -2 -23 -9 -23 -14 0 -12 467 -12 474 0 3 5 -8 11
-25 15 -35 7 -390 6 -426 -1z"/>
<path d="M20710 16112 c0 -14 156 -163 163 -155 4 4 -27 42 -70 85 -73 73 -93
89 -93 70z"/>
<path d="M14873 16083 c-13 -3 -23 -9 -23 -14 0 -5 93 -9 225 -9 201 0 265 7
205 23 -23 6 -373 6 -407 0z"/>
<path d="M9473 16008 c48 -128 98 -218 96 -175 -1 24 -76 181 -89 185 -8 3
-11 -1 -7 -10z"/>
<path d="M14890 15952 c-5 -2 -10 -8 -10 -13 0 -5 85 -9 200 -9 127 0 200 4
200 10 0 6 -6 10 -12 11 -44 3 -370 3 -378 1z"/>
<path d="M19940 15896 c0 -2 60 -49 133 -104 375 -283 739 -632 943 -906 41
-54 74 -102 74 -107 0 -5 -97 -9 -215 -9 -137 0 -215 -4 -215 -10 0 -7 438
-10 1295 -10 857 0 1295 3 1295 10 0 7 -361 10 -1062 11 l-1063 0 -58 84
c-194 278 -551 628 -952 933 -127 96 -175 126 -175 108z"/>
<path d="M21009 15803 c14 -27 70 -77 77 -70 8 8 -58 87 -74 87 -9 0 -10 -5
-3 -17z"/>
<path d="M9630 15643 c0 -19 73 -193 81 -193 5 0 9 3 9 8 0 19 -73 192 -81
192 -5 0 -9 -3 -9 -7z"/>
<path d="M9770 15268 c0 -25 62 -198 71 -198 5 0 9 4 9 10 0 24 -62 200 -70
200 -6 0 -10 -6 -10 -12z"/>
<path d="M9890 14890 c0 -25 54 -200 61 -200 5 0 9 5 9 12 0 26 -53 198 -61
198 -5 0 -9 -5 -9 -10z"/>
<path d="M9994 14488 c3 -13 13 -60 23 -105 16 -77 33 -109 33 -64 0 18 -24
132 -36 174 -8 26 -27 21 -20 -5z"/>
<path d="M10073 14098 c3 -13 11 -57 17 -98 15 -93 18 -103 28 -96 5 3 3 42
-4 88 -18 111 -22 128 -35 128 -6 0 -9 -10 -6 -22z"/>
<path d="M4093 13984 c-7 -3 -13 -9 -13 -12 0 -4 132 -7 292 -7 284 0 422 -9
653 -41 504 -70 969 -217 1355 -429 181 -100 477 -311 559 -399 l24 -26 -991
0 c-655 0 -992 -3 -992 -10 0 -7 440 -10 1300 -10 860 0 1300 3 1300 10 0 6
-102 10 -285 10 l-286 0 -102 88 c-519 445 -1159 703 -2002 808 -129 16 -785
31 -812 18z"/>
<path d="M23448 13924 c-5 -4 -8 -139 -8 -301 0 -324 -2 -338 -63 -401 -18
-19 -50 -43 -72 -55 l-40 -22 -908 -3 c-580 -2 -906 -6 -902 -12 4 -6 70 -10
155 -10 l148 0 17 -77 c108 -496 261 -949 413 -1218 115 -204 145 -237 637
-688 528 -485 782 -726 880 -837 83 -93 111 -112 130 -87 3 4 2 5 -2 2 -9 -7
-43 26 -43 42 0 8 -5 11 -11 8 -6 -4 -9 0 -7 11 2 11 -3 19 -12 19 -9 0 -14 8
-12 20 2 14 0 16 -6 7 -7 -10 -17 -4 -40 24 -17 20 -29 41 -25 47 3 5 1 7 -4
4 -6 -4 -26 9 -45 28 -51 53 -57 62 -50 71 4 4 2 4 -5 0 -7 -4 -65 46 -147
126 -74 73 -139 135 -143 138 -24 14 -41 35 -36 43 3 6 1 7 -4 4 -12 -7 -46
26 -38 36 3 4 2 5 -1 2 -14 -10 -55 25 -347 292 -485 444 -552 516 -660 715
-87 160 -192 428 -272 693 -29 96 -118 448 -140 552 l-5 22 747 3 748 3 54 30
c59 32 105 87 122 144 11 41 9 637 -3 625z"/>
<path d="M24520 13899 c-110 -21 -259 -118 -356 -231 -98 -113 -163 -244 -273
-545 -211 -576 -257 -643 -611 -886 -122 -83 -271 -228 -318 -308 -58 -100
-76 -163 -76 -274 -1 -129 27 -226 56 -197 7 7 8 12 2 12 -13 0 -37 77 -29 90
3 6 1 10 -5 10 -7 0 -10 27 -9 75 1 41 5 72 10 69 5 -3 6 9 3 26 -4 20 -3 30
5 30 7 0 9 5 6 11 -4 6 1 17 11 25 11 9 13 13 7 9 -18 -9 -17 -6 18 63 18 38
37 62 47 63 11 0 12 2 4 6 -6 2 -9 9 -6 14 3 6 12 5 22 -3 15 -11 15 -11 5 2
-10 13 -7 22 16 49 19 22 33 31 41 26 9 -6 11 -4 5 4 -8 13 33 58 48 53 5 -1
6 1 3 6 -8 13 72 74 86 66 7 -4 8 -3 4 4 -6 10 18 30 37 30 5 0 12 4 15 8 4 4
1 4 -7 -1 -10 -6 -12 -4 -7 4 4 7 17 9 29 6 14 -4 18 -3 9 2 -9 7 -1 17 29 36
43 29 75 36 63 15 -4 -7 2 -4 14 6 24 20 31 36 9 17 -8 -6 -17 -8 -20 -4 -4 3
12 20 36 37 23 17 45 35 49 41 4 5 8 6 8 1 0 -5 11 3 24 17 13 14 27 23 32 19
4 -4 4 -2 1 4 -4 7 8 25 26 41 18 16 37 37 40 47 4 11 13 16 22 12 17 -6 30
10 15 19 -6 4 -8 11 -4 16 3 5 10 6 16 3 7 -4 8 -2 4 5 -4 6 1 23 12 39 20 29
75 143 100 207 8 22 19 44 24 50 4 5 8 17 8 27 0 10 5 18 10 18 5 0 9 3 8 8
-4 17 14 72 24 72 6 0 9 3 6 6 -9 8 22 94 34 94 5 0 7 4 4 8 -8 14 16 82 27
75 6 -3 7 -2 4 4 -7 12 24 113 35 113 4 0 4 7 1 17 -5 12 -3 14 7 8 8 -5 11
-4 7 2 -9 15 17 75 28 66 4 -5 5 -3 1 4 -8 15 21 76 34 68 4 -3 7 2 6 12 -3
20 42 103 55 103 6 0 7 -6 3 -12 -5 -10 -3 -10 7 0 11 11 12 14 1 21 -11 7
-10 9 2 14 9 4 15 10 14 14 -4 13 26 53 39 53 7 0 12 4 11 9 -4 10 49 61 63
61 6 0 8 4 5 9 -8 13 63 73 76 65 6 -4 8 -3 5 3 -5 8 72 57 92 58 3 1 15 6 26
11 52 28 131 37 180 19 16 -5 17 -5 5 4 -13 9 -12 11 3 11 10 0 15 5 12 10 -7
12 -72 11 -135 -1z"/>
<path d="M24512 13861 c-11 -7 -11 -9 0 -14 9 -3 15 1 15 9 0 8 -1 14 -1 14
-1 0 -7 -4 -14 -9z"/>
<path d="M3160 13754 c-109 -20 -87 -28 72 -25 153 2 237 -8 396 -50 397 -104
804 -386 1130 -784 27 -33 32 -36 32 -18 0 41 -270 321 -439 456 -248 197
-554 344 -827 397 -103 20 -313 34 -364 24z"/>
<path d="M10134 13693 c3 -16 8 -52 11 -80 4 -29 11 -53 17 -53 9 0 4 100 -8
143 -9 28 -26 19 -20 -10z"/>
<path d="M24290 13690 c-9 -6 -10 -10 -3 -10 6 0 15 5 18 10 8 12 4 12 -15 0z"/>
<path d="M3020 13471 c0 -11 107 -27 117 -17 10 10 1 13 -59 20 -37 5 -58 4
-58 -3z"/>
<path d="M3300 13432 c0 -8 152 -42 186 -42 39 0 -4 20 -74 35 -82 17 -112 19
-112 7z"/>
<path d="M24520 13414 c0 -8 -3 -13 -7 -11 -5 3 -8 -72 -8 -166 0 -231 -6
-388 -13 -383 -4 2 -8 -39 -8 -92 -2 -138 -3 -142 -16 -302 -6 -80 -11 -157
-11 -172 0 -16 -2 -28 -6 -28 -3 0 -7 -49 -9 -108 -1 -59 -6 -108 -11 -110 -4
-1 -6 -15 -4 -30 3 -15 -1 -63 -7 -107 -6 -44 -11 -87 -11 -95 -1 -50 -54
-456 -60 -458 -4 -2 -6 -9 -3 -17 6 -14 -32 -297 -43 -325 -4 -8 -6 -25 -6
-37 0 -13 -3 -23 -6 -23 -3 0 -7 -28 -9 -62 -1 -34 -7 -67 -12 -73 -5 -7 -7
-14 -5 -17 5 -4 -18 -148 -38 -243 -11 -50 -20 -101 -21 -115 -6 -58 -20 -120
-28 -120 -5 0 -7 -4 -3 -10 8 -13 -16 -140 -27 -140 -5 0 -5 -12 -2 -26 5 -21
4 -25 -6 -19 -10 6 -12 4 -6 -10 6 -17 -9 -119 -22 -139 -3 -6 -7 -19 -8 -30
-1 -12 -5 -37 -8 -56 -11 -62 -11 -73 0 -77 6 -2 14 11 17 29 11 62 48 233 54
248 3 8 6 24 7 35 6 60 30 164 37 159 5 -3 6 2 3 10 -6 16 25 207 36 216 3 3
6 25 8 50 1 25 5 52 9 60 3 8 7 29 9 45 1 17 16 113 33 215 27 165 67 433 75
500 2 14 9 78 16 143 8 64 16 117 20 117 3 0 4 20 2 45 -2 25 0 45 4 45 5 0
10 30 11 67 1 41 7 69 15 74 9 6 9 9 1 9 -12 0 -6 123 7 128 3 1 5 25 2 52 -2
29 1 50 6 50 6 0 8 8 5 18 -2 10 3 106 11 213 9 107 16 198 16 203 0 4 6 4 13
0 10 -6 10 -4 0 7 -14 14 -18 73 -5 66 4 -3 7 36 7 86 1 202 18 572 28 578 5
4 7 11 4 16 -3 5 -7 37 -8 71 -1 34 -6 62 -11 62 -4 0 -8 -7 -8 -16z"/>
<path d="M3656 13341 c13 -13 176 -72 183 -66 8 9 -12 21 -82 49 -67 26 -120
35 -101 17z"/>
<path d="M25018 13243 c3 -14 1 -23 -4 -20 -5 3 -10 -15 -11 -39 -3 -104 -6
-123 -17 -117 -6 4 -5 0 1 -9 7 -8 10 -18 6 -21 -8 -8 -5 -272 4 -347 4 -30 7
-69 7 -87 1 -17 3 -29 5 -27 5 5 33 -90 34 -113 0 -7 3 -13 7 -13 11 0 41 -71
34 -81 -3 -5 0 -8 8 -7 7 2 12 -2 11 -9 -2 -7 11 -22 28 -33 23 -17 27 -25 19
-35 -8 -10 -8 -15 1 -21 8 -4 9 -3 5 4 -4 7 -3 12 3 12 17 0 24 -22 10 -32
-11 -8 -10 -9 3 -5 20 7 73 -57 62 -75 -4 -6 -3 -8 3 -5 13 8 46 -40 38 -53
-3 -6 1 -10 9 -10 19 0 21 -11 5 -27 -9 -9 -6 -10 11 -6 17 4 21 2 18 -8 -3
-8 -11 -13 -17 -12 -16 4 -14 -2 6 -18 10 -8 14 -9 10 -2 -4 6 -3 14 3 18 9 6
14 -8 11 -28 -1 -5 3 -6 8 -3 9 6 26 -22 23 -36 -1 -5 2 -8 8 -8 13 0 51 -80
43 -93 -4 -6 -1 -7 7 -2 10 6 12 4 7 -9 -4 -9 -3 -15 2 -12 11 7 62 -113 54
-127 -3 -5 -2 -7 4 -4 27 17 56 -191 39 -270 -5 -21 -4 -33 3 -33 15 0 24 84
18 164 -13 163 -101 336 -341 676 -57 80 -113 164 -124 186 -44 87 -63 182
-69 336 -5 129 9 393 23 454 3 13 0 23 -9 27 -10 4 -13 -1 -9 -20z"/>
<path d="M24987 13249 c7 -7 15 -10 18 -7 3 3 -2 9 -12 12 -14 6 -15 5 -6 -5z"/>
<path d="M3990 13202 c0 -6 32 -32 72 -58 82 -53 98 -60 98 -46 0 10 -125 97
-155 109 -8 3 -15 0 -15 -5z"/>
<path d="M20680 12880 c0 -160 4 -250 10 -250 6 0 10 90 10 250 0 160 -4 250
-10 250 -6 0 -10 -90 -10 -250z"/>
<path d="M24915 13070 c3 -5 8 -10 11 -10 2 0 4 5 4 10 0 6 -5 10 -11 10 -5 0
-7 -4 -4 -10z"/>
<path d="M24885 13034 c-9 -14 -22 -23 -30 -20 -8 3 -12 0 -9 -8 5 -13 -30
-59 -39 -50 -3 3 -4 -1 -3 -8 0 -7 -3 -13 -9 -13 -5 0 -9 4 -7 8 1 5 -3 5 -9
2 -7 -5 -8 -10 0 -18 13 -13 -26 -70 -41 -61 -6 4 -8 2 -4 -4 7 -12 -41 -73
-56 -69 -6 1 -13 -5 -15 -13 -4 -13 -3 -13 6 0 6 8 11 10 11 4 0 -7 -20 -33
-44 -60 -31 -33 -41 -51 -33 -56 6 -4 22 3 36 15 13 12 20 15 15 7 -12 -21
-14 -41 -3 -34 5 3 7 9 4 13 -2 5 4 16 15 26 11 10 20 23 20 28 0 6 -7 2 -15
-9 -8 -10 -15 -14 -15 -8 0 16 35 45 44 37 4 -4 4 0 1 9 -4 11 1 21 14 30 12
7 21 18 21 25 0 7 6 16 14 20 7 4 30 32 50 61 35 48 47 57 69 53 5 -1 6 3 2 9
-3 6 -12 7 -18 3 -7 -4 4 11 22 33 19 21 39 38 43 36 5 -1 4 7 -2 18 -14 25
-14 25 -35 -6z"/>
<path d="M23983 12984 c0 -9 11 -23 24 -31 12 -8 20 -19 17 -24 -3 -5 -2 -9 3
-8 22 4 34 -2 27 -13 -4 -7 -4 -10 1 -6 11 10 47 -11 40 -22 -3 -6 0 -7 8 -4
9 3 22 -4 31 -18 9 -12 16 -18 16 -13 0 6 7 1 15 -9 8 -11 15 -16 15 -12 0 5
7 3 15 -4 8 -7 13 -16 10 -20 -3 -5 0 -12 6 -16 8 -4 9 -3 5 4 -15 25 8 12 54
-30 10 -9 21 -14 24 -10 3 3 6 0 6 -6 0 -7 7 -12 15 -12 8 0 15 -3 15 -8 0 -4
16 -16 35 -26 19 -10 32 -23 29 -27 -3 -5 2 -6 11 -3 11 4 14 13 9 28 -6 19
-5 20 12 6 17 -14 18 -14 6 2 -8 9 -19 15 -26 12 -7 -3 -22 3 -32 13 -11 10
-13 14 -4 8 13 -8 13 -7 2 5 -7 8 -16 15 -20 15 -25 2 -51 18 -46 28 4 7 4 9
-1 5 -11 -10 -45 10 -41 25 1 6 1 9 -1 5 -3 -5 -13 -3 -24 3 -11 5 -17 14 -14
19 3 5 0 12 -6 16 -8 4 -9 3 -5 -4 13 -21 -5 -13 -55 24 -27 20 -46 41 -42 46
3 7 1 8 -6 4 -6 -4 -23 0 -37 9 -25 16 -25 17 -7 38 l18 22 -22 -18 c-12 -11
-27 -16 -33 -12 -9 6 -9 10 1 17 10 7 9 8 -5 4 -10 -4 -24 -2 -31 4 -8 7 -12
5 -12 -6z"/>
<path d="M24906 12991 c-4 -5 -2 -12 3 -15 5 -4 12 -2 15 3 4 5 2 12 -3 15 -5
4 -12 2 -15 -3z"/>
<path d="M4280 12984 c0 -7 121 -148 132 -152 16 -7 7 17 -19 50 -63 78 -113
124 -113 102z"/>
<path d="M10488 12888 c-37 -10 -52 -28 -24 -28 36 0 76 14 76 26 0 16 -1 16
-52 2z"/>
<path d="M24258 12843 c7 -3 16 -2 19 1 4 3 -2 6 -13 5 -11 0 -14 -3 -6 -6z"/>
<path d="M23816 12733 c-6 -14 -5 -15 5 -6 7 7 10 15 7 18 -3 3 -9 -2 -12 -12z"/>
<path d="M4497 12693 c-3 -5 7 -33 21 -63 30 -66 42 -45 13 23 -20 47 -26 54
-34 40z"/>
<path d="M24343 12661 c0 -11 5 -18 9 -15 4 3 5 11 1 19 -7 21 -12 19 -10 -4z"/>
<path d="M24537 12625 c3 -8 9 -12 14 -9 12 7 11 11 -5 17 -10 4 -13 1 -9 -8z"/>
<path d="M24865 12519 c-33 -27 -69 -58 -80 -69 -26 -25 -42 -26 -24 -2 13 15
12 16 -3 3 -10 -7 -15 -17 -12 -22 3 -5 0 -9 -7 -9 -7 0 -9 -3 -6 -6 10 -10
-64 -65 -77 -57 -6 3 -8 3 -4 -1 7 -8 -19 -42 -37 -47 -11 -4 -55 -54 -55 -63
0 -17 28 0 88 51 37 32 59 48 49 36 -12 -14 -15 -23 -8 -28 11 -6 12 -5 15 14
2 20 47 71 57 66 5 -4 8 -3 7 2 -2 4 -1 9 2 10 3 1 32 26 65 56 32 31 64 53
69 50 5 -3 6 -1 3 4 -4 6 5 18 18 27 14 9 23 21 20 26 -10 15 -16 12 -80 -41z"/>
<path d="M24846 12541 c5 -17 3 -21 -6 -16 -9 6 -11 4 -5 -5 6 -10 11 -10 20
3 7 9 16 13 20 9 5 -4 5 -1 1 6 -4 7 -11 10 -16 7 -4 -3 -11 1 -14 7 -3 7 -3
2 0 -11z"/>
<path d="M23818 12538 c18 -23 -4 -35 -27 -14 -16 15 -31 13 -31 -5 0 -8 134
-99 163 -111 10 -4 16 -12 12 -18 -3 -5 0 -7 8 -4 8 3 18 0 23 -7 4 -8 3 -10
-4 -5 -8 5 -10 1 -5 -9 4 -12 8 -13 13 -5 6 9 13 9 29 1 12 -7 19 -16 16 -21
-3 -5 0 -12 6 -16 8 -4 9 -3 5 4 -13 22 11 12 39 -15 16 -16 25 -22 20 -14 -5
9 1 7 19 -4 28 -18 34 -35 14 -35 -9 0 -8 -3 2 -9 17 -12 33 -4 23 12 -3 7 2
5 13 -4 10 -9 27 -19 37 -22 10 -4 16 -11 12 -16 -3 -5 0 -13 6 -17 8 -4 9 -3
5 4 -4 7 -2 12 3 12 6 0 11 -4 11 -9 0 -5 9 -11 21 -14 12 -3 18 -10 14 -16
-4 -7 0 -8 11 -4 13 5 15 3 9 -7 -5 -9 -4 -11 4 -6 13 8 44 -12 37 -23 -3 -4
4 -8 15 -8 11 -1 17 2 14 6 -2 5 10 16 28 25 17 8 25 16 17 16 -9 0 -21 -5
-27 -11 -7 -7 -24 -2 -56 19 -26 16 -44 32 -40 36 3 3 1 7 -5 7 -7 1 -15 2
-19 3 -12 3 -56 28 -70 40 -32 28 -43 36 -43 31 0 -3 -12 2 -26 11 -19 13 -22
19 -12 26 9 5 5 7 -12 6 -16 -2 -24 2 -22 10 1 8 -2 11 -7 7 -12 -7 -104 48
-96 58 3 4 2 5 -1 2 -7 -5 -64 22 -64 31 0 3 5 2 12 -2 7 -4 8 -3 4 4 -4 6
-12 9 -19 6 -7 -2 -22 4 -34 15 -11 11 -24 17 -28 13 -5 -4 -6 3 -3 15 4 14 0
27 -11 35 -14 11 -14 11 -3 -4z"/>
<path d="M24510 12511 c0 -6 4 -13 10 -16 6 -3 7 1 4 9 -7 18 -14 21 -14 7z"/>
<path d="M24923 12505 c0 -8 4 -12 9 -9 5 3 6 10 3 15 -9 13 -12 11 -12 -6z"/>
<path d="M9175 12416 c-162 -26 -284 -79 -485 -211 -188 -125 -300 -247 -389
-425 -70 -140 -93 -220 -156 -535 -91 -464 -136 -557 -427 -888 -69 -79 -153
-179 -186 -223 -64 -86 -160 -250 -167 -286 -3 -13 -9 -34 -14 -48 -14 -39
-22 -108 -21 -186 1 -85 2 -94 29 -163 11 -30 17 -59 14 -64 -3 -6 -1 -7 4 -4
10 6 66 -105 66 -130 0 -7 4 -13 9 -13 5 0 6 -4 3 -10 -3 -5 -2 -10 3 -10 10
0 36 -48 37 -67 0 -6 4 -15 9 -20 5 -5 6 -2 1 6 -5 9 -4 12 3 7 7 -4 12 -13
12 -21 0 -7 5 -15 11 -17 5 -2 11 -11 13 -20 1 -10 6 -21 11 -25 4 -4 5 -1 1
7 -4 8 1 4 11 -10 10 -13 44 -51 76 -83 34 -35 56 -65 53 -73 -3 -8 -2 -14 3
-14 12 0 19 -70 8 -77 -11 -7 -4 -61 33 -253 16 -85 32 -175 35 -200 4 -25 8
-54 11 -65 2 -11 5 -31 8 -45 2 -14 9 -49 16 -78 7 -29 10 -62 7 -73 -3 -10
-1 -17 3 -14 4 3 11 -19 16 -47 9 -68 12 -84 23 -138 12 -56 24 -128 26 -156
1 -11 4 -25 8 -31 4 -6 4 -18 1 -26 -3 -8 0 -18 5 -22 6 -3 9 -10 6 -15 -3 -5
-2 -18 3 -27 6 -10 12 -36 15 -58 12 -82 35 -221 41 -235 3 -8 8 -33 11 -55 3
-22 16 -98 30 -170 28 -146 37 -199 39 -235 0 -14 6 -28 11 -32 6 -5 5 -8 -4
-8 -9 0 -6 -6 7 -17 17 -15 28 -64 66 -283 64 -372 106 -609 115 -650 l7 -35
257 0 c232 0 258 -1 262 -16 6 -18 34 -33 43 -24 3 3 0 5 -5 5 -14 0 -93 110
-125 175 -36 71 -64 157 -88 271 -18 80 -23 144 -27 339 -2 132 -1 265 4 295
l8 55 245 12 c459 22 975 58 1540 106 l145 13 87 -43 c156 -77 520 -214 533
-201 3 3 -88 449 -119 581 -4 16 90 17 1855 17 l1859 0 0 -2029 0 -2029 -87
-7 c-359 -26 -667 -85 -982 -187 -180 -58 -207 -71 -219 -105 -14 -41 8 -90
44 -99 31 -8 2645 14 2684 22 40 9 60 33 60 74 0 61 -25 74 -293 150 -260 74
-580 128 -854 145 l-113 7 0 2029 0 2029 1830 0 c1458 0 1830 -3 1830 -12 -1
-7 -29 -141 -63 -298 l-62 -285 -70 -23 c-177 -58 -516 -158 -671 -197 -197
-51 -252 -73 -370 -150 -159 -103 -212 -167 -258 -308 -38 -118 -40 -155 -16
-322 30 -209 125 -857 224 -1525 47 -311 85 -587 86 -615 3 -80 5 -93 13 -88
6 3 10 -32 11 -97 0 -13 37 -14 290 -10 l291 5 8 210 c4 115 11 212 16 215 5
3 16 127 25 275 25 405 36 540 46 540 6 0 4 275 -2 293 -4 13 -10 44 -12 70
-2 26 -6 54 -10 62 -3 8 -7 29 -10 45 -2 17 -14 67 -26 112 -16 63 -19 87 -10
102 8 16 8 19 -3 16 -9 -4 -17 13 -27 57 -8 35 -15 71 -15 80 0 9 -4 20 -8 24
-4 4 -7 16 -7 26 0 17 11 18 134 18 79 0 137 -4 141 -10 3 -5 1 -10 -6 -10 -9
0 -7 -4 3 -12 14 -12 20 -39 34 -173 2 -16 10 -66 18 -110 9 -44 72 -451 140
-905 69 -454 128 -847 133 -875 l8 -50 282 -3 281 -2 6 72 c3 40 10 168 15
283 5 116 21 325 35 465 43 429 44 451 41 585 -3 80 -14 184 -29 270 -17 96
-22 141 -14 146 7 5 7 8 -1 10 -6 2 -13 23 -15 46 -1 23 -9 49 -16 58 -7 9
-14 30 -15 48 -2 18 -6 39 -9 47 -3 8 -12 38 -19 67 l-14 52 121 0 c250 1 923
17 1061 26 185 12 285 18 315 17 25 -1 30 2 20 8 -13 8 -12 10 3 10 32 0 135
59 186 107 30 28 38 29 313 28 l237 -1 11 55 c5 31 19 101 30 156 12 55 23
111 26 125 2 14 7 36 11 50 3 14 6 28 5 32 -2 8 24 156 38 218 18 85 54 295
52 308 -2 6 1 12 7 12 5 0 7 9 4 20 -3 11 2 32 12 46 10 15 12 23 4 19 -9 -6
-10 -3 -5 11 4 10 9 33 11 49 5 55 79 450 84 455 3 3 7 29 9 59 2 30 6 59 9
65 4 6 8 17 9 26 4 38 17 116 41 240 14 74 26 143 25 153 0 9 3 17 7 17 5 0 6
12 3 26 -3 18 -1 25 6 20 6 -4 8 1 5 14 -3 11 -2 28 2 37 5 10 7 22 6 27 -1 5
3 32 10 60 14 63 19 90 25 141 3 22 10 60 15 85 5 25 12 61 14 80 3 19 11 51
17 70 6 19 11 48 10 64 0 17 4 36 9 43 6 7 8 16 6 21 -3 4 3 52 13 106 11 54
19 116 19 139 -1 23 25 186 56 362 75 431 93 515 110 542 8 12 15 24 15 27 0
2 -24 7 -52 10 -73 8 -579 28 -584 23 -2 -2 3 -39 12 -83 19 -97 24 -335 7
-355 -6 -8 -21 -86 -32 -174 -25 -200 -59 -369 -105 -522 -73 -244 -148 -598
-181 -856 -16 -125 -20 -327 -7 -327 6 0 33 -326 36 -450 l1 -35 -115 -8 c-63
-4 -286 -9 -495 -10 -379 -2 -606 8 -883 39 -73 8 -141 12 -152 9 -16 -5 -78
-1 -350 20 -86 7 -170 16 -170 18 0 1 14 71 30 156 17 85 30 155 30 157 0 1
118 4 263 6 246 3 264 4 302 25 90 48 135 123 135 223 0 100 -45 175 -135 223
-37 20 -58 22 -285 27 -238 5 -246 6 -285 29 -99 61 -282 263 -439 486 -75
106 -96 129 -96 105 0 -15 106 -171 174 -255 31 -39 56 -79 56 -90 -1 -11 -13
-76 -28 -145 l-27 -125 -3922 -3 -3921 -2 -15 67 c-8 38 -14 70 -12 72 2 2 16
-6 32 -17 15 -11 53 -23 83 -27 30 -3 451 -7 934 -8 685 -1 880 1 884 11 3 9
-91 12 -423 12 l-426 0 36 31 c84 74 88 163 11 232 -56 50 -187 107 -351 152
-55 16 -103 31 -108 35 -4 3 5 35 19 71 76 185 176 485 335 1009 34 113 72
228 85 257 l23 52 77 3 c52 2 79 7 82 16 3 10 -42 13 -231 11 -130 0 -240 2
-246 6 -6 3 -11 32 -11 63 0 49 8 72 56 169 50 99 58 122 62 186 4 60 1 76
-13 90 -13 14 -20 15 -38 5 -31 -16 -41 -31 -99 -143 -44 -87 -52 -111 -59
-185 -8 -81 -60 -271 -92 -335 -9 -16 -88 -223 -177 -459 -88 -236 -167 -444
-175 -464 l-15 -35 -28 39 c-15 21 -58 82 -95 135 l-67 97 40 26 c23 15 38 31
35 36 -4 6 -1 10 4 10 6 0 11 5 11 11 0 12 -107 165 -217 312 -67 88 -77 108
-113 220 -70 223 -225 788 -274 1002 -50 218 -56 273 -62 529 -2 127 -9 276
-15 331 -14 135 -60 311 -105 401 -45 91 -155 213 -231 256 -29 16 -53 32 -53
34 0 3 16 12 35 20 24 10 35 21 35 34 0 31 -25 35 -70 11 -22 -12 -42 -21 -44
-21 -2 0 -11 20 -20 45 -20 50 -27 58 -50 49 -18 -7 -21 -36 -6 -65 13 -24 15
-24 -61 10 -176 79 -395 108 -594 77z m-835 -726 c-41 -120 -64 -234 -99 -475
-95 -650 -196 -854 -536 -1085 -61 -41 -134 -97 -164 -125 l-55 -50 23 40 c44
77 110 161 240 310 336 382 363 441 465 1011 14 78 37 179 52 225 24 78 94
243 99 237 2 -2 -10 -41 -25 -88z m2020 -997 c22 -98 58 -243 80 -323 21 -79
38 -146 36 -147 -1 -2 -21 41 -44 94 -99 233 -133 379 -131 570 2 123 2 125
10 56 5 -40 26 -152 49 -250z m-435 -545 c5 4 5 1 1 -6 -6 -10 -11 -10 -22 -1
-8 6 -14 14 -14 16 0 3 6 0 13 -6 8 -6 18 -7 22 -3z m1610 -2047 l170 -49
-218 -1 -217 -1 37 49 c21 28 43 50 48 50 6 0 87 -22 180 -48z m-3098 -873
c-2 -13 -4 -5 -4 17 -1 22 1 32 4 23 2 -10 2 -28 0 -40z m2130 -100 c-3 -8 -6
-5 -6 6 -1 11 2 17 5 13 3 -3 4 -12 1 -19z"/>
<path d="M19845 12338 c-156 -17 -261 -84 -358 -227 -23 -33 -34 -41 -58 -41
-37 0 -76 20 -108 54 -29 31 -61 35 -61 6 0 -10 14 -35 32 -55 l31 -36 -57 2
c-31 1 -61 -2 -67 -8 -17 -17 44 -124 112 -197 l60 -65 -35 -7 c-20 -3 -39
-10 -42 -16 -10 -16 72 -113 138 -163 119 -90 229 -125 396 -125 122 0 209 15
322 56 91 32 223 97 269 132 l34 25 -6 -139 c-6 -124 2 -264 18 -315 5 -16 9
-16 33 -3 35 18 49 17 98 -5 48 -22 69 -63 61 -118 -7 -43 -35 -74 -88 -98
-45 -21 -43 -14 -24 -120 12 -71 12 -96 -2 -215 -18 -153 -10 -220 27 -220 54
0 272 125 294 168 43 84 162 493 192 662 23 123 26 438 5 520 -17 69 -52 139
-91 184 l-31 34 55 12 c54 11 71 26 56 50 -6 9 -21 11 -55 6 -46 -7 -47 -7
-39 16 15 45 11 73 -13 76 -18 3 -24 -4 -33 -37 -14 -52 -25 -58 -40 -20 -18
43 -87 98 -145 114 -50 14 -456 84 -612 105 -107 14 -194 17 -268 8z"/>
<path d="M25040 12341 c0 -6 4 -13 10 -16 6 -3 7 1 4 9 -7 18 -14 21 -14 7z"/>
<path d="M24560 12315 c0 -2 6 -8 13 -14 10 -8 14 -7 14 2 0 8 -6 14 -14 14
-7 0 -13 -1 -13 -2z"/>
<path d="M4772 11913 c3 -301 4 -309 27 -356 28 -57 95 -111 158 -126 26 -7
189 -11 426 -11 299 0 386 -3 390 -12 9 -25 216 -295 289 -379 l75 -85 -79
-95 c-153 -182 -406 -535 -493 -685 l-18 -32 -47 47 c-90 90 -262 184 -465
254 -97 34 -397 112 -597 157 -248 55 -454 218 -713 565 -61 83 -122 167 -134
188 -12 20 -29 37 -38 37 -17 0 -3 -26 76 -140 212 -309 471 -559 653 -631 29
-11 141 -41 248 -66 514 -119 785 -225 937 -368 l64 -60 -86 -150 c-252 -443
-459 -944 -591 -1434 l-9 -33 -74 118 c-326 520 -833 1238 -1285 1819 -241
310 -533 665 -547 665 -21 0 -3 -28 109 -163 591 -712 1180 -1521 1699 -2333
l90 -141 -24 -104 c-13 -57 -37 -180 -53 -273 -16 -93 -34 -172 -40 -176 -5
-3 -219 -53 -475 -110 -309 -70 -465 -109 -465 -117 0 -7 4 -13 8 -13 9 0 442
97 760 170 95 22 174 40 176 40 1 0 -1 -30 -6 -67 -17 -146 -28 -285 -34 -443
-4 -91 -8 -166 -9 -168 -2 -2 -118 -29 -259 -61 -141 -32 -259 -60 -263 -64
-22 -23 35 -15 264 36 141 32 257 56 258 55 1 -2 5 -86 8 -188 6 -166 31 -478
41 -506 3 -7 -45 -22 -122 -39 -152 -34 -178 -43 -166 -55 6 -6 63 3 147 22
75 17 140 28 143 25 4 -3 9 -27 11 -52 5 -41 17 -64 29 -52 2 2 -2 50 -11 105
-163 1084 47 2249 594 3307 233 451 559 927 840 1228 57 61 73 87 52 87 -5 0
-27 -21 -48 -46 l-39 -47 -76 89 c-87 104 -278 354 -278 366 0 4 221 8 490 8
313 0 490 4 490 10 0 6 -324 11 -907 12 l-908 3 -41 22 c-54 29 -110 93 -123
140 -7 23 -11 154 -11 326 0 192 -3 287 -10 287 -7 0 -10 -99 -8 -307z"/>
<path d="M24216 12178 c3 -5 10 -6 15 -3 13 9 11 12 -6 12 -8 0 -12 -4 -9 -9z"/>
<path d="M23430 12150 c0 -5 14 -16 30 -25 17 -9 30 -20 30 -25 0 -6 3 -9 8
-8 11 4 92 -44 92 -54 0 -5 4 -7 9 -4 5 3 14 -1 21 -9 7 -8 17 -15 22 -15 5 0
19 -10 30 -22 11 -13 17 -17 13 -11 -3 7 19 -2 49 -20 30 -17 52 -36 48 -42
-3 -5 -2 -7 3 -3 7 7 65 -18 65 -28 0 -3 -5 -2 -12 2 -7 4 -8 3 -4 -4 4 -6 13
-9 21 -6 7 3 23 -4 34 -15 12 -12 21 -18 21 -13 0 4 7 -2 15 -12 8 -11 15 -17
15 -13 0 4 10 3 21 -4 18 -9 19 -13 8 -21 -12 -8 -11 -9 1 -5 8 2 24 -3 34
-12 16 -13 18 -13 11 -1 -4 8 5 1 21 -16 16 -16 22 -21 14 -10 -15 19 -15 19
17 1 18 -10 29 -23 26 -28 -3 -6 -1 -7 5 -3 13 8 55 -17 47 -27 -3 -4 -2 -5 1
-2 7 5 64 -22 64 -31 0 -3 -5 -2 -12 2 -7 4 -8 3 -4 -5 4 -6 11 -9 16 -6 11 7
41 -5 36 -14 -3 -4 6 -8 20 -9 36 -3 29 14 -16 43 -22 14 -40 30 -40 35 0 6
-3 9 -7 9 -20 -3 -34 2 -28 11 3 5 0 7 -9 4 -8 -3 -24 4 -35 15 -12 12 -23 21
-26 20 -13 -1 -115 62 -115 72 0 5 -4 8 -9 5 -5 -3 -20 3 -34 14 -14 11 -30
20 -37 20 -6 0 -8 5 -4 12 5 8 2 9 -9 5 -9 -3 -19 -1 -23 5 -5 7 -2 8 6 3 9
-5 11 -4 6 4 -4 6 -12 8 -18 5 -6 -4 -17 1 -25 11 -7 11 -13 15 -13 11 0 -4
-13 1 -30 11 -33 19 -41 36 -12 26 9 -3 14 -3 10 2 -4 4 -18 9 -30 10 -29 2
-78 25 -78 37 0 4 -3 7 -7 6 -16 -4 -53 23 -47 34 4 7 3 8 -4 4 -14 -8 -75 22
-67 33 2 5 -3 8 -13 7 -9 0 -16 4 -15 11 2 8 -4 10 -14 6 -12 -5 -14 -3 -8 7
5 9 4 11 -3 6 -7 -4 -22 0 -34 8 -25 18 -48 21 -48 6z"/>
<path d="M24406 12152 c-3 -5 1 -9 9 -9 8 0 12 4 9 9 -3 4 -7 8 -9 8 -2 0 -6
-4 -9 -8z"/>
<path d="M25226 12123 c-6 -14 -5 -15 5 -6 7 7 10 15 7 18 -3 3 -9 -2 -12 -12z"/>
<path d="M25156 12063 c-14 -13 -17 -14 -12 -3 4 8 -1 4 -12 -9 -10 -13 -24
-21 -30 -17 -6 3 -14 1 -18 -5 -5 -8 -3 -9 7 -4 11 6 12 5 2 -5 -10 -11 -15
-11 -30 1 -16 13 -17 12 -5 -3 11 -14 10 -18 -10 -29 -13 -7 -26 -12 -30 -11
-5 1 -8 -2 -8 -7 0 -13 -97 -71 -106 -63 -4 4 -4 2 0 -5 6 -11 -29 -30 -46
-25 -5 1 -7 -4 -5 -10 1 -7 -6 -12 -16 -11 -10 0 -16 -1 -13 -4 9 -10 -43 -45
-55 -37 -8 4 -9 3 -5 -4 5 -9 -25 -35 -44 -37 -3 0 -18 -13 -34 -28 -16 -14
-32 -24 -37 -21 -5 3 -9 0 -9 -7 0 -7 -3 -9 -7 -6 -3 4 -12 -1 -20 -11 -8 -9
-12 -12 -9 -6 3 6 -1 11 -8 11 -8 0 -12 -6 -9 -14 3 -7 -3 -16 -13 -20 -11 -4
-28 -15 -39 -25 -10 -10 -25 -16 -33 -13 -7 2 -11 1 -7 -4 3 -5 -1 -11 -7 -14
-9 -3 -7 -7 5 -12 12 -5 32 2 60 21 23 15 47 27 54 27 7 0 9 5 6 10 -4 6 1 8
11 4 9 -4 15 -3 12 2 -3 5 1 14 9 21 12 10 19 10 33 -1 16 -13 16 -13 2 5 -14
18 -13 19 2 13 10 -3 17 -2 15 2 -1 5 29 30 67 56 38 26 66 42 62 36 -5 -7 -1
-9 8 -5 9 3 14 10 11 15 -6 9 33 34 55 34 8 0 15 6 15 13 0 16 26 33 40 25 5
-4 7 -3 3 2 -7 8 44 46 59 44 3 0 10 7 15 16 6 10 17 14 31 10 15 -4 18 -3 9
3 -9 6 2 19 43 46 31 20 59 34 64 32 4 -3 6 6 3 19 -5 30 -3 29 -26 8z"/>
<path d="M23565 12010 c-3 -6 1 -7 9 -4 18 7 21 14 7 14 -6 0 -13 -4 -16 -10z"/>
<path d="M23814 11980 c0 -13 4 -16 10 -10 7 7 7 13 0 20 -6 6 -10 3 -10 -10z"/>
<path d="M24965 11969 c-4 -6 -5 -12 -2 -15 2 -3 7 2 10 11 7 17 1 20 -8 4z"/>
<path d="M23716 11942 c-3 -5 1 -9 9 -9 8 0 15 4 15 9 0 4 -4 8 -9 8 -6 0 -12
-4 -15 -8z"/>
<path d="M23940 11881 c0 -6 4 -13 10 -16 6 -3 7 1 4 9 -7 18 -14 21 -14 7z"/>
<path d="M24455 11851 c-3 -5 -2 -12 3 -15 5 -3 9 1 9 9 0 17 -3 19 -12 6z"/>
<path d="M24733 11825 c0 -8 4 -12 9 -9 5 3 6 10 3 15 -9 13 -12 11 -12 -6z"/>
<path d="M24619 11743 c-13 -16 -12 -17 4 -4 16 13 21 21 13 21 -2 0 -10 -8
-17 -17z"/>
<path d="M23210 11736 c0 -2 8 -10 18 -17 15 -13 16 -12 3 4 -13 16 -21 21
-21 13z"/>
<path d="M24565 11720 c-3 -6 1 -7 9 -4 18 7 21 14 7 14 -6 0 -13 -4 -16 -10z"/>
<path d="M23259 11703 c-7 -10 -9 -15 -5 -11 11 9 87 -32 81 -42 -3 -4 3 -7
13 -6 9 0 16 -4 15 -10 -1 -7 5 -11 15 -10 9 0 16 -5 14 -12 -1 -8 2 -11 7 -8
14 9 61 -15 54 -28 -3 -6 -3 -8 2 -4 11 11 47 -11 39 -24 -4 -7 -3 -8 4 -4 14
9 73 -24 66 -36 -3 -5 -2 -8 3 -6 4 1 25 -6 46 -15 25 -11 36 -21 31 -28 -5
-9 -2 -10 10 -6 10 4 19 1 22 -8 4 -8 10 -12 15 -9 5 3 9 0 9 -5 0 -6 3 -10 8
-9 15 3 42 -15 42 -29 0 -8 4 -11 10 -8 9 6 59 -21 71 -38 3 -5 10 -9 15 -9
13 -1 45 -24 39 -29 -2 -3 4 -5 13 -6 10 -1 46 -19 81 -40 34 -21 78 -47 97
-58 19 -11 43 -33 53 -49 12 -17 20 -23 23 -15 3 8 11 10 24 4 75 -32 29 14
-76 75 -39 23 -70 43 -70 46 0 3 5 2 12 -2 7 -4 8 -3 4 5 -4 6 -11 9 -16 6
-13 -8 -52 14 -45 25 4 6 -1 7 -11 3 -10 -4 -15 -2 -11 4 3 5 0 10 -7 10 -13
0 -157 85 -188 111 -10 8 -15 20 -11 26 4 6 -1 5 -10 -3 -11 -9 -17 -10 -17
-2 0 6 -5 11 -12 11 -13 0 -148 79 -148 87 0 2 5 1 12 -3 7 -4 8 -3 4 5 -4 6
-11 9 -16 6 -5 -3 -19 -1 -30 5 -18 10 -19 14 -8 28 12 15 11 16 -4 4 -20 -16
-42 -6 -34 15 3 8 2 12 -3 9 -4 -3 -16 3 -25 13 -13 15 -14 20 -4 24 7 3 8 6
2 6 -6 1 -17 -5 -23 -13 -11 -13 -19 -11 -56 12 -24 14 -41 30 -38 36 3 5 1 6
-5 2 -7 -4 -22 0 -34 8 -28 20 -33 20 -49 -1z m206 -83 c16 -17 16 -20 3 -15
-9 4 -19 13 -22 21 -7 19 -2 18 19 -6z"/>
<path d="M24086 11692 c-3 -5 1 -9 9 -9 8 0 12 4 9 9 -3 4 -7 8 -9 8 -2 0 -6
-4 -9 -8z"/>
<path d="M2567 11628 c-249 -258 -271 -668 -66 -1196 181 -467 256 -685 290
-837 7 -33 13 -118 13 -190 0 -140 -20 -264 -74 -470 -84 -320 -90 -531 -21
-731 50 -146 160 -282 282 -349 35 -19 54 -24 61 -17 7 7 -5 18 -40 36 -28 14
-78 51 -113 83 -144 134 -210 303 -210 543 -1 137 9 199 66 430 60 239 75 336
75 468 0 206 -36 337 -241 873 -171 448 -202 570 -201 804 1 227 70 411 205
545 37 37 54 61 47 65 -7 4 -37 -19 -73 -57z"/>
<path d="M25470 11686 c0 -2 8 -10 18 -17 15 -13 16 -12 3 4 -13 16 -21 21
-21 13z"/>
<path d="M25160 11670 c-9 -6 -10 -10 -3 -10 6 0 15 5 18 10 8 12 4 12 -15 0z"/>
<path d="M25240 11643 c-25 -14 -54 -33 -65 -42 -17 -14 -18 -14 -10 -1 6 9 1
6 -10 -6 -34 -36 -175 -125 -187 -118 -7 4 -8 3 -4 -4 7 -12 -27 -35 -38 -25
-3 3 -6 2 -6 -4 0 -12 -139 -106 -157 -106 -7 0 -10 -4 -7 -9 5 -8 -11 -12
-31 -8 -5 1 -7 -2 -3 -5 12 -12 -55 -53 -69 -43 -7 6 -14 4 -19 -3 -4 -8 -3
-9 4 -5 7 4 12 3 12 -2 0 -11 -30 -26 -47 -23 -6 1 -15 -4 -19 -10 -5 -8 -2
-10 7 -5 8 4 1 -3 -16 -16 -16 -13 -32 -23 -35 -22 -3 0 -14 -8 -25 -18 -12
-12 -28 -17 -42 -13 -24 6 -32 -3 -39 -41 -4 -22 -2 -25 17 -19 16 5 19 4 14
-5 -5 -9 -4 -11 4 -6 6 4 9 12 5 17 -3 5 8 14 25 20 17 6 31 15 31 20 0 5 6 9
14 9 8 0 16 4 18 8 2 4 25 22 51 40 27 18 46 28 42 23 -3 -5 0 -13 6 -17 7 -4
9 -3 6 3 -9 15 18 47 32 39 6 -4 8 -12 5 -18 -4 -7 -2 -8 5 -4 9 6 9 11 0 22
-11 14 -10 15 11 18 6 0 15 7 19 15 6 8 18 12 31 8 16 -4 19 -2 11 7 -12 14
24 41 41 30 6 -4 8 -3 5 3 -6 9 9 21 28 23 2 0 17 12 31 25 21 20 30 22 41 14
7 -7 16 -9 20 -5 3 3 1 6 -5 6 -18 0 -14 20 6 27 9 4 23 13 30 20 8 7 19 10
25 6 7 -3 9 -2 4 2 -10 11 231 167 245 159 7 -4 8 -2 4 5 -10 15 22 27 37 12
6 -6 16 -11 22 -11 5 0 2 5 -8 11 -12 7 -16 17 -12 30 8 25 -1 24 -55 -8z
m-770 -497 c0 -2 -7 -9 -15 -16 -13 -11 -14 -10 -9 4 5 14 24 23 24 12z"/>
<path d="M24170 11640 c0 -5 5 -10 11 -10 5 0 7 5 4 10 -3 6 -8 10 -11 10 -2
0 -4 -4 -4 -10z"/>
<path d="M22926 11538 c3 -5 10 -6 15 -3 13 9 11 12 -6 12 -8 0 -12 -4 -9 -9z"/>
<path d="M25165 11529 c-3 -4 2 -6 10 -5 21 3 28 13 10 13 -9 0 -18 -4 -20 -8z"/>
<path d="M25025 11461 c-3 -5 0 -13 6 -17 8 -5 9 -3 4 6 -6 10 -4 12 9 7 10
-4 15 -3 11 3 -8 13 -22 13 -30 1z"/>
<path d="M7530 11174 c0 -167 3 -253 10 -249 6 4 10 100 10 256 0 159 -4 249
-10 249 -6 0 -10 -92 -10 -256z"/>
<path d="M23833 11415 c0 -8 4 -12 9 -9 5 3 6 10 3 15 -9 13 -12 11 -12 -6z"/>
<path d="M19843 11375 c-38 -16 -46 -42 -10 -30 12 4 46 10 75 12 51 5 54 3
93 -36 60 -60 84 -53 32 10 -47 56 -123 74 -190 44z"/>
<path d="M23706 11372 c-3 -5 1 -9 9 -9 8 0 12 4 9 9 -3 4 -7 8 -9 8 -2 0 -6
-4 -9 -8z"/>
<path d="M19533 11355 c-13 -9 -23 -23 -23 -31 0 -19 9 -18 33 3 11 11 34 17
58 17 52 -2 46 20 -7 24 -24 2 -48 -4 -61 -13z"/>
<path d="M19561 11266 c-18 -21 -10 -97 12 -110 22 -14 49 2 62 38 18 53 -42
111 -74 72z"/>
<path d="M19866 11264 c-32 -31 -12 -114 28 -114 28 0 50 28 50 65 0 55 -44
83 -78 49z"/>
<path d="M24575 11250 c-3 -6 1 -7 9 -4 18 7 21 14 7 14 -6 0 -13 -4 -16 -10z"/>
<path d="M24136 11218 c3 -5 10 -6 15 -3 13 9 11 12 -6 12 -8 0 -12 -4 -9 -9z"/>
<path d="M25351 11100 c-12 -17 -27 -28 -33 -24 -7 4 -8 2 -4 -5 9 -14 -12
-43 -25 -35 -5 3 -7 -1 -4 -8 3 -7 -12 -31 -32 -52 -21 -22 -32 -36 -26 -32 7
4 -4 -20 -24 -53 -21 -32 -41 -57 -45 -55 -4 3 -5 -3 -1 -12 5 -13 3 -15 -8
-9 -11 7 -11 5 1 -10 13 -16 291 -203 563 -378 l87 -57 -31 -62 c-17 -35 -63
-112 -102 -171 l-70 -109 -28 76 c-67 184 -217 324 -395 370 -34 9 -67 16 -73
16 -15 0 -14 -28 6 -215 l16 -160 120 -29 c150 -35 304 -83 312 -96 9 -14
-145 -199 -286 -344 -100 -104 -118 -118 -124 -101 -22 69 -58 156 -66 160 -5
4 -6 0 -3 -8 2 -7 -2 -36 -11 -63 -8 -27 -23 -73 -32 -101 -11 -33 -23 -53
-33 -54 -9 0 -6 -4 8 -9 37 -15 37 -37 2 -67 -18 -14 -38 -33 -46 -40 -8 -8
-18 -12 -23 -9 -5 3 -7 -2 -5 -11 5 -21 -84 -176 -96 -168 -5 3 -12 0 -16 -6
-5 -8 -3 -9 6 -4 8 5 11 3 8 -6 -3 -8 -10 -13 -15 -12 -5 1 -10 -7 -10 -18 -2
-17 1 -18 13 -8 22 18 104 4 171 -30 33 -16 108 -66 168 -111 60 -45 136 -96
169 -113 56 -29 69 -32 156 -32 87 0 100 3 148 30 61 33 92 67 92 101 0 45
-41 134 -83 179 -56 60 -142 109 -228 130 -85 21 -259 16 -353 -10 -32 -9 -60
-15 -62 -13 -1 2 23 25 55 50 31 26 99 86 149 134 l93 86 52 -6 c136 -18 275
-74 411 -165 66 -45 133 -81 150 -81 2 0 26 35 51 78 26 42 63 96 81 119 l35
42 -48 35 c-136 98 -387 124 -605 61 -54 -16 -60 -9 -22 26 45 41 222 256 277
335 l52 76 58 -5 c82 -7 182 -59 302 -156 55 -44 129 -95 165 -113 59 -30 73
-33 150 -33 103 0 171 27 225 86 29 33 35 46 35 86 0 147 -197 265 -445 266
-116 1 -208 -14 -349 -54 -55 -16 -101 -28 -102 -26 -1 1 30 56 67 122 l69
120 52 7 c29 3 184 7 343 7 306 2 386 10 511 51 149 50 192 154 113 274 -86
129 -275 134 -567 15 -120 -49 -237 -117 -336 -197 -43 -35 -75 -56 -71 -45
27 62 65 178 65 197 0 29 -18 46 -51 46 -34 0 -44 -13 -73 -96 -13 -38 -36
-96 -51 -129 l-28 -60 -14 55 c-52 202 -131 376 -227 497 -61 77 -168 173
-192 173 -5 0 -20 -14 -33 -30z"/>
<path d="M19719 11118 c-1 -2 -2 -17 -4 -33 -1 -17 -14 -48 -29 -69 -14 -21
-26 -45 -26 -53 0 -28 22 -55 55 -69 44 -18 65 -18 65 1 0 9 -9 15 -23 15 -30
0 -67 27 -67 48 0 10 11 34 25 54 25 37 33 92 15 103 -5 3 -10 5 -11 3z"/>
<path d="M3607 11063 c-2 -5 -2 -19 -1 -33 1 -14 5 -115 9 -225 4 -110 9 -213
10 -230 2 -16 3 -51 4 -77 1 -35 5 -48 15 -48 11 0 14 11 11 43 -2 23 -6 134
-10 247 -4 113 -8 216 -10 230 -1 14 -3 42 -4 63 -1 33 -14 49 -24 30z"/>
<path d="M24382 11040 c0 -14 2 -19 5 -12 2 6 2 18 0 25 -3 6 -5 1 -5 -13z"/>
<path d="M25106 11028 c5 -7 -36 -23 -49 -20 -5 1 -6 -1 -3 -6 3 -5 -6 -14
-20 -21 -15 -6 -23 -7 -19 -1 3 5 1 10 -4 10 -6 0 -11 -7 -11 -15 0 -8 -9 -19
-20 -25 -11 -6 -20 -8 -20 -5 0 3 -8 -3 -18 -12 -10 -10 -35 -27 -57 -38 -22
-11 -46 -26 -53 -33 -8 -7 -18 -9 -24 -6 -7 5 -8 2 -3 -6 6 -10 3 -12 -13 -8
-12 4 -20 2 -17 -2 5 -8 -186 -130 -204 -130 -6 0 -11 -5 -11 -11 0 -6 -7 -8
-16 -5 -10 4 -13 2 -8 -6 5 -8 2 -9 -10 -5 -10 4 -15 3 -11 -3 6 -9 -8 -14
-28 -11 -5 1 -6 -3 -3 -8 6 -9 -62 -47 -77 -43 -5 1 -6 -2 -3 -7 6 -10 -21
-24 -33 -17 -4 3 -8 -4 -8 -16 -2 -17 2 -19 25 -13 15 4 29 10 32 14 10 13 60
41 60 34 0 -5 4 -3 8 3 7 12 87 64 97 64 4 0 3 -5 -1 -12 -4 -7 -3 -8 5 -4 6
4 9 12 6 17 -4 5 4 9 16 9 12 0 19 3 16 7 -10 9 52 45 65 37 6 -4 8 -3 4 4 -5
9 22 25 46 27 3 0 10 4 15 9 5 5 3 6 -4 2 -7 -4 -13 -5 -13 -2 0 12 61 36 73
30 7 -4 9 -4 5 1 -5 5 2 15 13 23 18 12 23 13 31 1 7 -11 8 -9 6 6 -2 16 2 20
22 18 14 -1 19 0 12 3 -9 4 -3 14 20 29 24 17 37 20 46 13 9 -8 11 -7 7 5 -6
14 27 34 48 29 5 -1 6 2 3 7 -6 9 22 26 37 23 4 -1 7 3 7 9 0 5 3 8 8 6 4 -2
22 10 39 27 32 30 32 31 9 31 -13 0 -22 -3 -20 -7z"/>
<path d="M23278 11023 c7 -3 16 -2 19 1 4 3 -2 6 -13 5 -11 0 -14 -3 -6 -6z"/>
<path d="M23270 10981 c0 -5 14 -14 30 -21 17 -7 33 -17 37 -23 4 -6 1 -7 -7
-2 -9 5 -11 4 -6 -4 4 -6 11 -9 16 -6 13 8 81 -30 72 -40 -4 -5 -2 -6 3 -3 15
8 57 -10 50 -22 -3 -5 0 -7 8 -4 8 3 22 -2 30 -11 9 -9 19 -16 22 -15 15 0
113 -55 109 -62 -3 -4 2 -5 10 -2 9 3 16 1 16 -5 0 -6 7 -11 16 -11 8 0 12 -4
9 -10 -4 -6 1 -7 11 -3 12 4 15 3 10 -5 -4 -8 -2 -10 7 -6 8 3 21 -1 28 -9 8
-7 19 -14 24 -15 6 -1 19 -10 30 -19 11 -10 24 -16 28 -15 16 5 86 -41 80 -52
-3 -6 -3 -8 1 -4 11 9 67 -12 60 -23 -3 -5 3 -6 12 -2 13 5 15 3 9 -8 -4 -8
-5 -11 0 -7 4 4 25 -2 46 -12 21 -11 46 -20 56 -20 16 1 15 3 -4 19 -12 10
-19 22 -15 25 3 4 -2 4 -12 0 -13 -5 -17 -4 -12 4 4 8 2 10 -8 6 -8 -3 -24 4
-35 15 -12 12 -21 19 -21 16 0 -10 -45 17 -53 32 -5 7 -13 11 -18 7 -5 -3 -25
6 -44 21 -19 14 -35 23 -35 20 0 -3 -13 2 -30 12 -16 9 -30 21 -30 26 0 4 -4
6 -9 3 -5 -3 -20 3 -34 15 -15 11 -29 20 -32 19 -20 -1 -26 2 -23 13 2 7 -1
12 -7 12 -5 0 -9 -4 -7 -9 3 -10 -72 35 -76 46 -2 5 -7 6 -12 3 -4 -3 -13 2
-20 10 -7 8 -19 15 -27 15 -8 0 -11 5 -7 12 4 7 3 8 -4 4 -14 -8 -55 18 -45
28 4 4 0 4 -9 1 -10 -4 -29 1 -45 12 -15 11 -43 25 -60 32 -18 8 -31 16 -29
20 3 4 -9 8 -25 9 -16 1 -29 -2 -29 -7z"/>
<path d="M23156 10952 c-3 -5 1 -9 9 -9 8 0 12 4 9 9 -3 4 -7 8 -9 8 -2 0 -6
-4 -9 -8z"/>
<path d="M23595 10861 c-3 -5 -2 -12 3 -15 5 -3 9 1 9 9 0 17 -3 19 -12 6z"/>
<path d="M24730 10829 c0 -5 5 -7 10 -4 6 3 10 8 10 11 0 2 -4 4 -10 4 -5 0
-10 -5 -10 -11z"/>
<path d="M11800 10810 c-10 -6 69 -10 233 -10 158 0 247 4 247 10 0 13 -460
13 -480 0z"/>
<path d="M19887 10765 c-47 -55 -93 -67 -144 -40 -36 20 -53 15 -34 -9 22 -27
76 -38 120 -26 40 11 111 79 111 107 0 22 -13 14 -53 -32z"/>
<path d="M23720 10786 c0 -2 8 -10 18 -17 15 -13 16 -12 3 4 -13 16 -21 21
-21 13z"/>
<path d="M24560 10746 c0 -2 8 -10 18 -17 15 -13 16 -12 3 4 -13 16 -21 21
-21 13z"/>
<path d="M24487 10709 c7 -7 15 -10 18 -7 3 3 -2 9 -12 12 -14 6 -15 5 -6 -5z"/>
<path d="M11596 10694 c-3 -9 -4 -20 0 -23 3 -3 126 -7 274 -9 268 -3 269 -3
280 18 9 17 9 21 1 15 -7 -4 -19 -1 -28 7 -10 8 -14 8 -10 1 6 -9 -46 -12
-213 -13 -172 0 -220 2 -220 12 0 8 -3 9 -8 3 -10 -14 -54 -17 -62 -4 -5 7
-10 5 -14 -7z"/>
<path d="M12229 10693 c-13 -16 -12 -17 4 -4 9 7 17 15 17 17 0 8 -8 3 -21
-13z"/>
<path d="M23406 10688 c3 -5 10 -6 15 -3 13 9 11 12 -6 12 -8 0 -12 -4 -9 -9z"/>
<path d="M4040 10628 c0 -2 -20 -143 -45 -313 -30 -203 -42 -312 -36 -318 7
-7 12 -6 15 4 4 11 80 527 89 603 1 11 -4 21 -10 23 -7 3 -13 3 -13 1z"/>
<path d="M12111 10561 c-108 -38 -127 -90 -111 -310 12 -162 34 -253 66 -265
43 -16 181 39 202 81 19 37 22 108 12 266 -13 195 -15 204 -36 228 -22 24 -63
24 -133 0z"/>
<path d="M23575 10549 c-4 -6 -13 -8 -21 -5 -7 3 -15 2 -18 -2 -3 -4 4 -8 14
-9 11 -1 22 3 25 8 4 5 11 6 17 3 7 -4 8 -2 4 4 -9 15 -13 15 -21 1z"/>
<path d="M24127 10539 c7 -7 15 -10 18 -7 3 3 -2 9 -12 12 -14 6 -15 5 -6 -5z"/>
<path d="M24152 10514 c-7 -8 -8 -14 -3 -14 10 0 25 19 20 25 -2 1 -10 -3 -17
-11z"/>
<path d="M20315 10484 c-22 -13 -59 -26 -82 -30 -53 -8 -56 -24 -5 -24 41 0
143 46 150 68 5 18 -18 13 -63 -14z"/>
<path d="M23655 10469 c-4 -5 -13 -8 -21 -5 -7 3 -16 0 -20 -6 -4 -6 -3 -8 4
-4 6 3 17 0 24 -8 13 -12 16 -11 26 5 7 10 8 20 2 24 -5 3 -12 0 -15 -6z"/>
<path d="M23738 10373 c6 -2 9 -10 6 -15 -4 -7 -2 -8 5 -4 13 9 5 26 -12 25
-9 0 -8 -2 1 -6z"/>
<path d="M24916 10369 c4 -6 -26 -22 -35 -19 -2 1 -7 -2 -10 -7 -3 -5 -20 -19
-37 -31 -24 -16 -34 -18 -43 -9 -10 9 -11 8 -6 -5 5 -11 -1 -19 -17 -24 -13
-4 -27 -7 -31 -6 -5 1 -6 -2 -3 -7 6 -9 -22 -26 -36 -23 -5 1 -8 -3 -8 -9 0
-5 -4 -8 -9 -5 -5 3 -12 -1 -15 -10 -3 -8 -10 -13 -15 -9 -5 3 -12 1 -16 -5
-4 -6 -10 -8 -15 -5 -5 3 -12 0 -16 -6 -4 -8 -3 -9 4 -5 7 4 12 5 12 3 0 -11
-91 -58 -100 -52 -6 4 -9 1 -8 -7 2 -7 -5 -12 -15 -11 -10 0 -16 -2 -13 -5 9
-9 -54 -43 -66 -36 -7 4 -8 2 -4 -5 4 -6 0 -14 -11 -18 -10 -3 -26 -13 -35
-20 -9 -9 -23 -12 -30 -7 -7 4 -10 4 -6 -1 12 -12 -98 -81 -122 -77 -3 0 -7
-8 -7 -20 -1 -14 3 -18 13 -14 9 3 19 6 23 6 4 0 18 9 31 20 12 11 27 17 31
14 5 -3 9 -1 9 5 0 6 10 15 21 22 17 9 20 8 14 -3 -4 -7 1 -3 13 8 31 32 90
66 102 59 6 -4 9 -2 8 3 -2 6 1 10 6 10 5 0 12 4 15 9 8 11 42 32 64 39 9 4
17 10 17 15 0 5 5 9 11 9 5 0 7 -5 3 -12 -4 -7 -3 -8 5 -4 6 4 9 11 6 16 -4 7
9 15 33 21 4 1 12 9 19 18 10 13 12 14 13 1 0 -10 5 -7 16 8 8 12 19 20 24 17
4 -3 11 2 14 11 4 10 13 14 28 10 13 -3 17 -3 10 0 -10 5 -6 12 14 25 21 13
31 15 41 7 10 -8 12 -7 7 5 -4 11 5 21 28 33 18 10 36 17 39 17 3 -1 18 9 33
22 16 14 34 22 40 18 6 -3 8 -3 4 2 -4 4 0 14 10 21 15 12 13 14 -20 12 -20
-1 -35 -5 -32 -9z"/>
<path d="M4695 10328 c-7 -21 -265 -998 -265 -1003 0 -3 6 -5 13 -5 9 0 56
162 145 498 73 273 132 503 132 510 0 6 -5 12 -10 12 -6 0 -13 -6 -15 -12z"/>
<path d="M23809 10308 c-5 -18 -6 -38 -1 -34 7 8 12 36 6 36 -2 0 -4 -1 -5 -2z"/>
<path d="M24761 10294 c0 -11 3 -14 6 -6 3 7 2 16 -1 19 -3 4 -6 -2 -5 -13z"/>
<path d="M3090 10269 c-146 -15 -275 -28 -287 -28 -14 -1 -23 -7 -23 -16 0
-18 -7 -18 160 0 74 8 205 22 290 30 193 19 220 24 220 35 0 14 -65 11 -360
-21z"/>
<path d="M19625 10202 c-123 -53 -242 -119 -358 -198 -162 -111 -210 -163
-416 -452 -113 -160 -132 -192 -113 -192 4 0 70 89 147 198 163 230 273 347
415 441 92 60 320 180 408 213 23 9 42 21 42 27 0 16 -6 15 -125 -37z"/>
<path d="M20765 10069 c-106 -56 -319 -230 -616 -501 -212 -193 -198 -164
-137 -283 121 -239 363 -461 630 -579 95 -42 76 -10 -24 40 -190 94 -337 211
-457 360 -63 78 -129 183 -156 246 l-15 37 158 144 c279 256 510 446 617 507
30 17 53 36 50 41 -8 12 -4 12 -50 -12z"/>
<path d="M5150 10055 c0 -6 -258 -941 -316 -1144 -22 -77 -32 -127 -26 -133 6
-6 12 -6 15 -1 3 4 83 287 177 628 95 341 175 628 177 638 4 11 0 17 -11 17
-9 0 -16 -2 -16 -5z"/>
<path d="M23920 10046 c0 -15 45 -56 61 -56 17 0 9 29 -10 35 -11 3 -22 12
-25 20 -7 19 -26 19 -26 1z"/>
<path d="M24010 9966 c0 -2 8 -10 18 -17 15 -13 16 -12 3 4 -13 16 -21 21 -21
13z"/>
<path d="M24160 9956 c0 -2 8 -10 18 -17 15 -13 16 -12 3 4 -13 16 -21 21 -21
13z"/>
<path d="M22163 9863 c0 -9 4 -10 14 -2 7 6 13 12 13 14 0 1 -6 2 -13 2 -8 0
-14 -6 -14 -14z"/>
<path d="M22495 9860 c10 -11 20 -20 23 -20 3 0 -3 9 -13 20 -10 11 -20 20
-23 20 -3 0 3 -9 13 -20z"/>
<path d="M24937 9799 c7 -7 15 -10 18 -7 3 3 -2 9 -12 12 -14 6 -15 5 -6 -5z"/>
<path d="M24900 9786 c0 -2 9 -6 20 -9 11 -3 18 -1 14 4 -5 9 -34 13 -34 5z"/>
<path d="M24832 9729 c-35 -22 -69 -36 -75 -33 -7 4 -9 3 -4 -1 8 -10 -43 -46
-55 -39 -4 3 -8 1 -8 -5 0 -6 -7 -7 -17 -4 -10 4 -14 2 -10 -4 4 -6 -1 -17
-10 -24 -14 -12 -16 -12 -8 1 4 8 -2 5 -15 -8 -12 -13 -28 -21 -36 -18 -7 3
-16 0 -20 -6 -4 -7 -3 -8 4 -4 7 4 12 5 12 3 0 -11 -73 -47 -82 -41 -6 4 -8 3
-5 -3 7 -12 -98 -77 -112 -69 -12 8 -41 -3 -41 -16 0 -6 7 -5 15 2 9 7 18 10
22 7 3 -4 -6 -12 -21 -18 -26 -12 -33 -24 -18 -33 4 -2 43 17 87 44 59 36 83
46 93 38 7 -6 15 -8 19 -4 3 3 1 6 -5 6 -7 0 -12 4 -12 9 0 11 50 44 67 44 7
0 13 4 13 9 0 4 6 8 14 8 8 0 16 4 18 9 2 5 9 11 17 13 8 2 23 11 33 21 10 10
24 15 31 11 7 -4 9 -4 5 1 -10 11 41 37 55 28 6 -3 7 -1 3 5 -8 13 24 32 53
32 11 0 23 4 26 10 3 6 -1 7 -12 4 -15 -4 -14 -3 2 7 11 7 28 13 39 14 11 1
21 10 23 23 4 31 -12 27 -85 -19z"/>
<path d="M24174 9744 c-18 -14 -18 -15 4 -4 12 6 22 13 22 15 0 8 -5 6 -26
-11z"/>
<path d="M7045 9740 c-3 -5 -1 -10 4 -10 6 0 11 5 11 10 0 6 -2 10 -4 10 -3 0
-8 -4 -11 -10z"/>
<path d="M24936 9737 c3 -10 9 -15 12 -12 3 3 0 11 -7 18 -10 9 -11 8 -5 -6z"/>
<path d="M3690 9719 c-63 -10 -254 -40 -424 -67 -195 -30 -311 -52 -314 -60
-6 -18 10 -16 325 33 158 25 346 55 417 66 137 21 150 25 141 40 -7 11 -3 11
-145 -12z"/>
<path d="M13667 9658 c-170 -417 -659 -1635 -660 -1643 -1 -5 3 -12 8 -14 6
-2 23 28 38 65 32 79 535 1326 608 1510 50 125 56 144 40 144 -5 0 -20 -28
-34 -62z"/>
<path d="M25003 9515 c0 -8 4 -12 9 -9 5 3 6 10 3 15 -9 13 -12 11 -12 -6z"/>
<path d="M18610 9398 c0 -7 96 -126 213 -264 116 -138 249 -294 293 -347 l82
-96 295 217 c163 119 296 223 296 231 1 7 -5 11 -13 8 -11 -5 -288 -207 -469
-344 -31 -23 -58 -43 -60 -43 -1 0 0 32 1 71 2 39 0 75 -6 81 -5 5 -25 -12
-52 -47 -23 -30 -46 -55 -50 -55 -5 0 -89 96 -188 213 -99 116 -213 251 -253
299 -73 86 -89 100 -89 76z"/>
<path d="M26960 9406 c0 -2 11 -28 24 -57 14 -30 28 -75 31 -101 4 -27 12 -48
17 -48 17 0 0 99 -27 158 -13 28 -29 52 -34 52 -6 0 -11 -2 -11 -4z"/>
<path d="M26240 9141 c-213 -423 -536 -1279 -705 -1871 -120 -421 -270 -1078
-316 -1387 -11 -74 -9 -106 6 -91 3 3 19 81 35 174 179 1038 520 2125 964
3082 36 78 66 145 66 147 0 3 -4 5 -10 5 -5 0 -23 -27 -40 -59z"/>
<path d="M4065 9160 c-55 -10 -208 -37 -340 -59 -132 -23 -289 -50 -350 -61
-60 -11 -177 -31 -260 -45 -171 -30 -185 -33 -185 -46 0 -15 2 -15 490 71 63
11 207 36 320 55 421 73 464 81 468 93 5 16 -21 14 -143 -8z"/>
<path d="M22491 9124 c0 -11 3 -14 6 -6 3 7 2 16 -1 19 -3 4 -6 -2 -5 -13z"/>
<path d="M23144 9004 c-22 -52 -29 -185 -15 -267 6 -37 38 -149 70 -249 73
-225 85 -285 79 -391 -7 -143 -52 -210 -240 -359 -120 -96 -168 -145 -204
-211 -24 -45 -28 -63 -29 -132 0 -70 4 -89 32 -148 37 -77 127 -178 207 -231
28 -18 108 -65 179 -104 224 -124 299 -189 352 -304 59 -128 54 -255 -13 -331
-11 -13 -12 -21 -5 -28 8 -8 19 0 37 28 48 72 59 160 32 260 -44 163 -136 257
-386 393 -63 34 -145 82 -182 106 -163 109 -256 275 -228 410 19 91 70 153
227 275 165 129 222 207 245 336 16 94 -5 207 -81 443 -85 268 -99 384 -56
487 10 24 12 40 5 47 -6 6 -15 -4 -26 -30z"/>
<path d="M24635 9011 c-3 -5 0 -13 6 -17 7 -4 9 -3 5 4 -3 5 0 13 6 15 9 4 10
6 1 6 -6 1 -14 -3 -18 -8z"/>
<path d="M26980 9007 c0 -7 -18 -50 -40 -96 -44 -92 -44 -91 -30 -91 13 0 90
157 90 182 0 10 -4 18 -10 18 -5 0 -10 -6 -10 -13z"/>
<path d="M24679 9008 c0 -2 -2 -11 -4 -22 -2 -10 -15 -30 -29 -45 l-25 -26 48
-106 c27 -58 63 -142 80 -186 27 -66 39 -83 73 -106 136 -88 288 -38 317 105
9 43 8 63 -4 105 -40 136 -170 216 -398 248 -26 3 -45 10 -42 15 3 5 1 11 -5
15 -5 3 -10 5 -11 3z"/>
<path d="M22450 8939 c0 -5 5 -7 10 -4 6 3 10 8 10 11 0 2 -4 4 -10 4 -5 0
-10 -5 -10 -11z"/>
<path d="M26580 8838 c-105 -225 -146 -388 -137 -553 6 -120 27 -190 112 -380
93 -207 110 -269 110 -395 0 -96 -2 -110 -29 -163 -57 -112 -147 -181 -393
-303 -83 -41 -172 -93 -196 -115 -62 -54 -97 -127 -97 -202 0 -65 33 -157 57
-157 8 0 13 3 11 8 -36 69 -43 93 -42 152 0 123 52 178 278 291 88 45 186 98
216 117 77 51 153 129 186 193 28 51 29 60 29 184 -1 149 -11 188 -108 400
-71 156 -96 231 -110 336 -19 149 20 321 124 551 28 62 53 119 56 126 3 6 0
12 -7 12 -6 0 -33 -46 -60 -102z"/>
<path d="M23486 8892 c-20 -33 296 -1435 490 -2177 165 -628 267 -988 284
-993 17 -6 19 -17 -83 348 -244 869 -516 2005 -653 2725 -17 91 -27 115 -38
97z"/>
<path d="M15620 8836 c0 -8 4 -16 10 -18 5 -1 116 -2 245 0 198 2 235 5 235
17 0 13 -37 15 -245 15 -205 0 -245 -2 -245 -14z"/>
<path d="M15427 8713 c-20 -20 14 -23 233 -23 207 0 240 2 240 15 0 13 -33 15
-233 15 -129 0 -237 -3 -240 -7z"/>
<path d="M26797 8650 c-30 -43 -79 -172 -69 -182 5 -5 16 10 27 39 10 26 29
70 42 96 27 54 27 85 0 47z"/>
<path d="M4310 8595 c-102 -18 -293 -52 -425 -75 -132 -23 -303 -52 -380 -66
-77 -13 -186 -32 -242 -41 -69 -11 -103 -21 -103 -30 0 -19 -123 -38 1005 158
66 11 178 30 249 43 74 12 131 27 134 34 5 17 -28 14 -238 -23z"/>
<path d="M17708 8355 c-2 -1 -48 -5 -103 -9 -84 -5 -450 -29 -760 -51 -44 -3
-116 -8 -160 -10 -139 -9 -185 -16 -185 -27 0 -9 156 -5 260 7 14 1 79 5 145
9 66 4 136 9 155 11 19 2 82 7 140 10 58 3 125 8 150 10 25 2 90 7 145 10 55
3 159 10 230 16 72 5 133 9 138 9 4 0 7 5 7 11 0 8 -152 12 -162 4z"/>
<path d="M26703 8243 c7 -52 31 -139 46 -163 21 -31 22 1 3 57 -11 32 -23 79
-27 106 -4 26 -12 47 -18 47 -6 0 -8 -18 -4 -47z"/>
<path d="M24284 8258 c-6 -10 3 -13 76 -26 122 -23 257 -94 318 -168 110 -133
132 -339 53 -497 -17 -34 -67 -102 -111 -152 -113 -128 -135 -171 -135 -267 0
-69 3 -81 30 -120 30 -42 101 -88 137 -88 32 0 19 19 -20 30 -52 13 -107 70
-122 126 -26 90 3 156 130 303 127 148 160 224 160 376 0 172 -71 306 -211
396 -82 52 -290 112 -305 87z"/>
<path d="M24892 8203 c-24 -51 -27 -70 -27 -158 1 -116 19 -191 93 -395 75
-206 95 -295 90 -410 -3 -84 -8 -105 -36 -162 -58 -118 -126 -180 -417 -375
-239 -161 -328 -269 -341 -415 -12 -117 44 -261 150 -390 30 -36 112 -113 184
-171 185 -151 265 -249 294 -359 6 -27 18 -48 25 -48 19 0 8 39 -34 128 -41
87 -131 187 -274 303 -221 179 -319 335 -319 506 0 158 76 255 340 433 192
128 231 158 299 223 113 109 154 202 154 347 0 113 -17 182 -103 429 -95 272
-109 401 -54 509 27 52 29 62 13 62 -5 0 -22 -26 -37 -57z"/>
<path d="M26847 7912 c-4 -5 14 -42 39 -83 50 -81 71 -106 79 -97 3 3 -17 43
-46 89 -62 100 -65 103 -72 91z"/>
<path d="M22261 7824 c0 -11 3 -14 6 -6 3 7 2 16 -1 19 -3 4 -6 -2 -5 -13z"/>
<path d="M27045 7553 c3 -10 17 -56 31 -102 25 -88 30 -98 40 -88 6 5 -24 125
-45 180 -6 15 -16 27 -22 27 -7 0 -8 -7 -4 -17z"/>
<path d="M7410 7511 c0 -6 4 -13 10 -16 6 -3 7 1 4 9 -7 18 -14 21 -14 7z"/>
<path d="M27061 7133 c-12 -25 -38 -65 -57 -89 -36 -44 -33 -70 4 -31 27 29
92 137 92 154 0 26 -17 12 -39 -34z"/>
<path d="M4005 7123 c3 -10 11 -56 16 -103 10 -85 0 -243 -21 -335 -49 -211
93 -681 265 -883 34 -39 65 -55 65 -32 0 6 -4 10 -9 10 -17 0 -96 117 -147
217 -125 245 -184 517 -149 688 35 178 28 455 -12 455 -10 0 -13 -6 -8 -17z"/>
<path d="M26745 6830 c-77 -58 -98 -80 -76 -80 14 0 171 121 171 132 0 16 -15
7 -95 -52z"/>
<path d="M10040 6820 c0 -5 33 -19 73 -30 39 -12 158 -48 262 -80 105 -32 248
-75 319 -95 322 -91 473 -176 577 -330 115 -168 135 -366 69 -688 -17 -82 -28
-153 -24 -158 12 -21 27 -2 30 41 2 24 9 49 14 55 5 7 7 14 5 17 -3 3 -1 18 5
34 14 35 17 74 26 269 7 177 -6 258 -61 373 -37 78 -126 180 -201 233 -100 69
-231 123 -444 183 -69 19 -235 69 -369 111 -244 75 -281 83 -281 65z"/>
<path d="M11456 6731 c-9 -13 -5 -15 124 -51 321 -90 579 -176 646 -215 73
-43 199 -186 245 -279 53 -108 58 -166 30 -341 -28 -174 -101 -723 -101 -757
0 -16 4 -28 9 -28 4 0 18 75 30 168 12 92 40 292 62 444 44 313 47 385 20 463
-42 118 -168 279 -271 345 -58 37 -217 92 -530 184 -124 37 -232 69 -242 72
-9 3 -19 0 -22 -5z"/>
<path d="M26536 6613 c-30 -30 -59 -194 -37 -207 7 -5 11 6 11 32 0 22 9 70
21 107 20 64 21 84 5 68z"/>
<path d="M7735 5700 c3 -5 8 -10 11 -10 2 0 4 5 4 10 0 6 -5 10 -11 10 -5 0
-7 -4 -4 -10z"/>
<path d="M9618 5663 c6 -2 18 -2 25 0 6 3 1 5 -13 5 -14 0 -19 -2 -12 -5z"/>
<path d="M9978 5653 c7 -3 16 -2 19 1 4 3 -2 6 -13 5 -11 0 -14 -3 -6 -6z"/>
<path d="M10088 5653 c7 -3 16 -2 19 1 4 3 -2 6 -13 5 -11 0 -14 -3 -6 -6z"/>
<path d="M11528 5643 c6 -2 18 -2 25 0 6 3 1 5 -13 5 -14 0 -19 -2 -12 -5z"/>
<path d="M11578 5643 c7 -3 16 -2 19 1 4 3 -2 6 -13 5 -11 0 -14 -3 -6 -6z"/>
<path d="M26767 5573 c-7 -11 -37 -170 -37 -194 0 -10 4 -19 8 -19 10 0 48
208 39 216 -3 3 -7 2 -10 -3z"/>
<path d="M11567 5403 c-4 -6 -9 -29 -13 -51 -4 -23 -9 -40 -13 -38 -4 3 -6
-17 -5 -42 0 -26 -6 -101 -14 -167 -23 -192 -20 -387 10 -730 16 -170 30 -335
32 -365 15 -187 19 -220 27 -220 14 0 11 49 -22 441 -48 577 -48 647 6 1058
11 87 7 139 -8 114z"/>
<path d="M4500 5338 c0 -21 32 -98 41 -98 12 0 12 4 -7 61 -15 45 -34 66 -34
37z"/>
<path d="M8769 5334 c-5 -6 -6 -14 -2 -17 3 -4 298 -7 655 -7 610 0 648 1 648
18 0 16 -37 17 -646 17 -454 0 -648 -3 -655 -11z"/>
<path d="M20769 5341 c9 -6 -282 -9 -716 -8 -581 2 -729 -1 -726 -10 6 -16
1458 -19 1468 -3 3 5 13 7 23 4 14 -5 14 -4 2 4 -8 6 -17 9 -21 6 -4 -2 -10 0
-14 6 -3 5 -12 10 -18 10 -8 0 -7 -4 2 -9z"/>
<path d="M21625 5340 c-3 -5 -1 -10 4 -10 6 0 11 5 11 10 0 6 -2 10 -4 10 -3
0 -8 -4 -11 -10z"/>
<path d="M10415 5330 c-3 -5 -1 -10 4 -10 6 0 11 5 11 10 0 6 -2 10 -4 10 -3
0 -8 -4 -11 -10z"/>
<path d="M10397 5228 c-4 -18 -9 -89 -12 -158 -3 -69 -8 -161 -10 -205 -3 -77
2 -171 24 -390 10 -102 16 -175 26 -325 3 -47 8 -105 10 -130 2 -25 7 -103 11
-173 6 -115 14 -152 27 -130 7 11 -38 655 -59 843 -13 122 -16 201 -11 370 4
118 10 241 13 273 7 62 -9 83 -19 25z"/>
<path d="M21170 5221 c0 -6 4 -13 10 -16 6 -3 7 1 4 9 -7 18 -14 21 -14 7z"/>
<path d="M23290 5181 c0 -5 4 -11 9 -13 5 -1 21 -88 36 -193 15 -104 32 -198
37 -207 7 -14 5 -18 -12 -18 -16 0 -19 -5 -15 -22 3 -13 43 -268 90 -568 47
-300 94 -599 105 -665 10 -66 29 -185 41 -265 12 -80 26 -147 29 -150 8 -6 11
-22 46 -260 13 -91 26 -177 30 -192 l6 -28 1010 0 c555 0 1014 -2 1019 -6 5
-3 11 1 14 8 4 12 253 1577 258 1623 1 12 -3 19 -12 17 -16 -3 -15 7 40 373
21 143 49 325 60 405 12 80 26 147 30 148 49 19 -142 22 -1406 22 -851 0
-1415 -4 -1415 -9z m2427 -873 c-3 -8 -6 -5 -6 6 -1 11 2 17 5 13 3 -3 4 -12
1 -19z m250 -110 c-3 -7 -5 -2 -5 12 0 14 2 19 5 13 2 -7 2 -19 0 -25z m-10
-60 c-3 -8 -6 -5 -6 6 -1 11 2 17 5 13 3 -3 4 -12 1 -19z m-400 -870 c-3 -8
-6 -5 -6 6 -1 11 2 17 5 13 3 -3 4 -12 1 -19z"/>
<path d="M26680 5123 c-6 -32 -15 -78 -20 -103 -5 -25 -7 -47 -4 -49 11 -11
23 21 38 105 19 108 19 104 7 104 -5 0 -15 -26 -21 -57z"/>
<path d="M21188 5135 c-3 -4 4 -32 16 -63 51 -127 108 -269 121 -297 38 -82
54 -128 48 -139 -3 -6 -3 -8 2 -4 8 7 52 -87 58 -124 2 -9 8 -22 14 -30 9 -11
18 -32 29 -68 0 -3 7 -21 14 -40 8 -19 12 -37 11 -39 -1 -2 2 -7 9 -11 6 -4
13 -13 14 -21 2 -8 9 -30 17 -49 7 -19 12 -38 11 -42 -1 -5 3 -8 10 -8 6 0 8
-3 5 -7 -4 -3 -2 -12 4 -19 6 -8 9 -21 5 -29 -3 -9 -2 -14 3 -11 5 3 14 -9 21
-27 7 -17 24 -57 38 -87 13 -30 24 -65 24 -77 0 -12 7 -24 15 -27 8 -3 11 -10
8 -16 -3 -5 -1 -10 5 -10 6 0 9 -4 5 -9 -3 -5 -1 -12 5 -16 6 -4 8 -11 5 -16
-4 -5 -1 -9 6 -9 7 0 9 -10 7 -25 -3 -14 -2 -25 3 -25 8 0 38 -57 43 -82 2 -7
12 -33 24 -58 11 -24 18 -48 16 -52 -3 -4 -1 -8 5 -8 6 0 7 -7 4 -17 -4 -11
-3 -14 5 -9 11 6 15 -5 11 -30 0 -4 4 -10 10 -14 6 -3 13 -16 16 -28 2 -11 9
-30 15 -42 6 -11 8 -26 4 -32 -4 -6 -3 -8 3 -5 6 4 16 -6 22 -23 5 -17 7 -30
4 -30 -3 0 2 -9 12 -20 10 -11 15 -23 12 -27 -4 -3 -1 -13 6 -22 26 -31 36
-68 24 -80 -9 -9 -8 -11 4 -6 11 4 20 -10 39 -62 12 -37 28 -77 34 -88 5 -11
11 -24 12 -30 1 -5 7 -22 13 -37 12 -31 47 -40 38 -10 -2 9 -135 334 -295 722
-160 388 -357 869 -439 1069 -81 200 -153 366 -159 368 -5 2 -13 1 -16 -2z"/>
<path d="M4610 5048 c0 -24 81 -208 91 -208 14 0 11 12 -32 111 -42 97 -59
125 -59 97z"/>
<path d="M8339 4943 c-13 -16 -12 -17 4 -4 16 13 21 21 13 21 -2 0 -10 -8 -17
-17z"/>
<path d="M26615 4768 c-22 -97 -34 -183 -25 -192 6 -6 10 -8 10 -5 0 2 9 51
20 109 24 123 22 110 10 110 -5 0 -12 -10 -15 -22z"/>
<path d="M8200 4681 c-4 -9 -110 -275 -233 -591 -124 -316 -268 -685 -321
-819 -90 -230 -109 -303 -71 -271 8 6 12 17 9 25 -3 7 -1 16 5 20 6 3 11 13
11 22 0 8 6 29 14 46 7 18 19 47 26 64 7 18 17 30 23 26 6 -3 7 -1 3 6 -4 6
-2 18 4 26 6 8 9 19 6 24 -4 5 -2 12 4 16 5 3 10 15 10 26 0 10 4 19 10 19 5
0 9 3 9 8 -1 4 -1 9 1 12 1 3 4 16 6 30 2 13 8 27 12 30 4 3 9 14 10 25 2 11
9 26 15 33 6 8 12 23 12 35 1 11 7 23 13 25 6 2 8 10 5 18 -3 8 0 14 6 14 6 0
11 7 11 15 0 8 6 15 13 15 9 0 9 2 0 8 -8 5 -7 16 6 42 9 19 18 40 19 45 6 29
14 45 22 45 5 0 7 7 4 15 -4 8 -1 15 5 15 7 0 11 6 9 13 -3 18 12 58 21 52 5
-2 6 6 4 19 -3 13 2 30 12 39 9 10 14 17 11 17 -7 0 40 128 53 144 4 6 18 43
31 83 13 40 28 69 33 66 6 -3 7 -1 3 5 -4 7 1 29 11 49 10 21 18 40 19 43 0 3
4 14 9 25 47 122 75 197 75 206 0 5 5 7 12 3 7 -4 8 -3 4 4 -4 6 0 27 8 47 8
19 16 39 16 43 1 4 8 17 16 30 8 12 12 22 9 22 -3 0 -1 8 4 18 8 14 6 19 -5
19 -8 0 -19 -8 -24 -16z"/>
<path d="M4780 4664 c0 -4 23 -51 52 -105 47 -90 68 -117 68 -89 0 17 -101
200 -111 200 -5 0 -9 -3 -9 -6z"/>
<path d="M26545 4388 c-5 -17 -35 -181 -35 -196 0 -7 4 -12 9 -12 5 0 16 42
26 93 9 50 18 97 20 104 5 17 -14 28 -20 11z"/>
<path d="M4990 4289 c0 -17 110 -189 121 -189 15 0 11 10 -48 106 -55 88 -73
109 -73 83z"/>
<path d="M26457 3912 c-19 -99 -21 -122 -9 -122 4 0 16 40 25 88 19 99 21 122
9 122 -4 0 -16 -40 -25 -88z"/>
<path d="M5220 3934 c0 -11 133 -184 142 -184 17 0 6 19 -57 103 -57 75 -85
102 -85 81z"/>
<path d="M5487 3603 c-6 -10 129 -173 144 -173 18 0 8 16 -47 80 -80 92 -91
103 -97 93z"/>
<path d="M26394 3573 c-4 -21 -12 -68 -19 -106 -7 -38 -9 -70 -4 -73 12 -7 15
5 34 111 18 106 18 105 5 105 -5 0 -12 -17 -16 -37z"/>
<path d="M11892 3503 l-293 -3 6 -48 c3 -26 9 -84 14 -130 l7 -84 -33 7 c-31
5 -35 3 -62 -41 -17 -25 -33 -59 -36 -74 -5 -21 -14 -29 -36 -34 -48 -9 -99
-37 -112 -60 -6 -11 -14 -46 -17 -76 -4 -49 -8 -55 -29 -58 -71 -10 -64 135 9
208 12 12 19 25 15 28 -10 10 -96 3 -111 -9 -16 -13 -34 -73 -34 -115 0 -36
-16 -54 -47 -54 -16 0 -24 7 -29 24 -9 36 14 130 40 169 l23 34 -68 23 -69 24
0 133 0 133 -283 0 -283 0 8 -82 c4 -46 10 -105 13 -132 l6 -48 -35 6 c-33 6
-37 4 -59 -31 -44 -70 -61 -140 -60 -243 1 -52 8 -117 16 -145 l13 -50 1293
-3 1293 -2 -7 37 c-8 49 -47 134 -80 177 -44 57 -94 85 -183 101 -72 12 -87
12 -127 -1 -60 -21 -85 -54 -85 -113 0 -50 -13 -71 -42 -71 -56 0 -48 136 13
201 16 17 27 34 24 38 -8 7 -93 3 -107 -5 -17 -11 -38 -71 -38 -112 0 -45 -18
-65 -52 -60 -21 3 -23 7 -21 66 1 49 8 74 32 116 l30 53 -64 18 c-46 12 -64
21 -63 33 0 10 -3 59 -7 110 -5 68 -3 92 6 92 9 0 9 3 0 14 -9 11 -8 18 4 30
9 9 13 15 8 14 -4 -2 -140 -4 -301 -5z"/>
<path d="M17441 3384 c0 -11 3 -14 6 -6 3 7 2 16 -1 19 -3 4 -6 -2 -5 -13z"/>
<path d="M5770 3282 c0 -5 37 -44 82 -88 55 -54 83 -74 86 -65 3 9 -26 43 -74
87 -77 71 -94 83 -94 66z"/>
<path d="M17960 3229 c-106 -26 -251 -38 -345 -29 -94 10 -146 20 -160 30 -8
6 -122 -24 -134 -35 -2 -2 6 -17 17 -33 26 -36 44 -107 40 -158 -3 -36 -5 -39
-32 -39 -29 0 -30 2 -41 65 -15 90 -26 106 -75 113 -22 3 -49 3 -60 0 -19 -5
-18 -8 14 -44 38 -41 49 -80 44 -149 -3 -39 -6 -45 -27 -48 -33 -5 -42 8 -45
66 -2 60 -22 86 -83 114 -40 18 -47 18 -123 4 -44 -9 -93 -22 -108 -30 -69
-37 -147 -154 -159 -241 l-6 -45 1291 0 1290 0 16 69 c28 122 19 244 -24 334
-41 85 -32 82 -167 51 -141 -32 -323 -36 -435 -10 -63 15 -69 14 -126 -5 l-60
-20 26 -46 c20 -36 26 -61 26 -112 l1 -66 -30 0 c-27 0 -30 3 -37 45 -14 86
-28 120 -51 125 -28 6 -55 9 -86 7 -23 -2 -23 -2 9 -38 39 -45 50 -73 50 -129
0 -58 -8 -75 -35 -75 -31 0 -46 22 -39 57 6 31 -12 79 -39 102 -8 6 -39 20
-68 30 -46 17 -55 24 -66 56 -19 57 -53 105 -71 104 -9 -1 -51 -10 -92 -20z"/>
<path d="M26330 3218 c0 -2 -9 -50 -20 -107 -19 -96 -20 -124 -3 -108 6 6 41
176 42 205 1 6 -3 12 -9 12 -5 0 -10 -1 -10 -2z"/>
<path d="M6120 2960 c48 -42 60 -48 60 -27 0 14 -72 67 -92 67 -7 -1 7 -19 32
-40z"/>
<path d="M7781 2853 c11 -19 15 -20 22 -7 5 9 6 18 3 21 -3 4 -6 1 -6 -7 0
-10 -3 -10 -17 1 -15 13 -15 12 -2 -8z"/>
<path d="M7555 2840 c-3 -6 1 -7 9 -4 18 7 21 14 7 14 -6 0 -13 -4 -16 -10z"/>
<path d="M22049 2813 c-13 -16 -12 -17 4 -4 16 13 21 21 13 21 -2 0 -10 -8
-17 -17z"/>
<path d="M26255 2808 c-11 -33 -35 -191 -31 -196 11 -10 16 5 31 84 8 43 17
89 20 102 6 23 -12 32 -20 10z"/>
<path d="M7635 2780 c3 -5 8 -10 11 -10 2 0 4 5 4 10 0 6 -5 10 -11 10 -5 0
-7 -4 -4 -10z"/>
<path d="M12188 2622 c-216 -1 -338 -6 -338 -12 0 -7 186 -9 538 -8 295 2 535
7 532 12 -6 9 -245 12 -732 8z"/>
<path d="M17198 2622 c-321 -1 -498 -6 -498 -12 0 -13 1036 -14 1044 -1 10 15
-34 16 -546 13z"/>
<path d="M10385 2610 c4 -7 248 -10 700 -10 452 0 696 3 700 10 4 7 -232 10
-700 10 -468 0 -704 -3 -700 -10z"/>
<path d="M17840 2610 c0 -7 240 -10 700 -10 460 0 700 3 700 10 0 7 -240 10
-700 10 -460 0 -700 -3 -700 -10z"/>
<path d="M15560 1205 c-10 -12 -10 -18 0 -30 18 -21 8 -36 -30 -49 -38 -12
-43 -33 -7 -28 12 1 53 6 91 10 82 8 105 32 31 32 l-47 0 7 31 c5 22 3 34 -6
40 -19 12 -25 11 -39 -6z"/>
<path d="M15775 1081 c-3 -5 7 -19 22 -31 16 -12 40 -39 54 -60 18 -27 30 -36
39 -30 11 7 10 13 -3 34 -22 33 -21 43 3 49 24 6 26 35 3 44 -11 4 -22 -1 -31
-15 l-14 -22 -25 20 c-28 22 -39 25 -48 11z"/>
<path d="M16154 1080 c-34 -13 -54 -50 -54 -97 0 -41 -1 -43 -31 -43 -28 0
-30 -2 -27 -32 2 -28 8 -34 31 -36 l27 -3 0 -110 0 -109 35 0 35 0 0 110 0
110 45 0 c45 0 45 0 45 35 0 35 0 35 -46 35 l-46 0 6 32 c8 39 23 50 59 44 25
-5 27 -3 27 28 0 22 -6 36 -16 40 -22 8 -65 6 -90 -4z"/>
<path d="M17454 1080 c-27 -11 -36 -34 -24 -65 18 -48 96 -26 88 26 -4 29 -37
49 -64 39z"/>
<path d="M15539 1066 c-97 -35 -167 -139 -157 -237 5 -51 38 -63 173 -63 117
0 215 22 282 64 29 17 32 23 26 52 -15 83 -86 164 -162 186 -50 15 -117 14
-162 -2z m46 -121 c14 -13 25 -36 25 -50 0 -32 -41 -75 -73 -75 -48 0 -88 61
-66 102 28 53 76 62 114 23z m175 5 c36 -36 16 -90 -35 -90 -24 0 -55 33 -55
57 0 18 37 53 55 53 8 0 24 -9 35 -20z"/>
<path d="M17562 868 l3 -213 38 -3 37 -3 0 55 c0 31 3 56 6 56 3 0 28 -25 56
-55 46 -51 53 -55 94 -55 24 0 44 4 44 8 0 4 -21 28 -46 52 -25 25 -55 58 -66
73 l-20 28 68 64 69 64 -50 1 c-47 0 -54 -3 -95 -45 -24 -25 -48 -45 -52 -45
-4 0 -8 52 -8 115 l0 115 -40 0 -40 0 2 -212z"/>
<path d="M12380 979 c0 -39 -3 -69 -7 -67 -67 34 -89 40 -123 29 -60 -18 -83
-51 -88 -128 -5 -81 14 -124 66 -149 39 -18 95 -14 122 11 21 19 30 19 30 0 0
-8 9 -15 20 -15 19 0 20 7 20 195 0 188 -1 195 -20 195 -18 0 -20 -7 -20 -71z
m-40 -86 c37 -25 40 -32 40 -101 0 -60 -1 -63 -32 -82 -56 -34 -106 -23 -133
30 -51 99 41 211 125 153z"/>
<path d="M14330 981 l0 -68 -40 19 c-123 61 -224 -88 -154 -224 30 -57 127
-75 175 -32 17 16 19 16 19 1 0 -11 8 -17 25 -17 l25 0 0 195 0 195 -25 0
c-24 0 -25 -2 -25 -69z m-19 -97 c15 -14 19 -31 19 -90 0 -71 -1 -74 -30 -89
-45 -23 -78 -19 -112 15 -28 29 -30 35 -26 87 4 46 10 61 33 81 23 19 36 23
63 18 19 -3 43 -13 53 -22z"/>
<path d="M14590 855 c0 -188 1 -195 20 -195 11 0 20 7 20 15 0 12 6 11 33 -5
91 -56 187 11 187 130 0 74 -28 119 -87 140 -39 13 -45 13 -80 -5 -21 -11 -41
-21 -45 -23 -5 -2 -8 28 -8 67 0 64 -2 71 -20 71 -19 0 -20 -7 -20 -195z m164
44 c27 -13 56 -64 56 -98 0 -34 -26 -88 -48 -100 -32 -17 -77 -13 -106 10 -24
19 -26 27 -26 90 0 67 1 70 33 89 37 23 56 25 91 9z"/>
<path d="M15378 1020 c-22 -28 -26 -29 -37 -16 -17 20 -37 21 -44 2 -6 -16 11
-36 30 -36 10 0 12 -10 7 -40 -5 -32 -3 -40 8 -40 9 0 18 13 21 30 4 16 19 48
33 70 19 28 24 44 17 51 -7 7 -18 1 -35 -21z"/>
<path d="M13064 1025 c-8 -21 2 -45 19 -45 21 0 38 25 31 44 -8 20 -43 21 -50
1z"/>
<path d="M12560 933 c-50 -26 -80 -76 -80 -132 0 -114 99 -181 204 -137 39 16
53 33 38 48 -7 7 -18 5 -33 -6 -37 -25 -101 -21 -132 9 -13 14 -27 34 -30 45
-5 19 0 20 109 20 l114 0 0 31 c0 41 -26 94 -55 113 -39 26 -95 29 -135 9z
m114 -45 c13 -13 27 -33 31 -45 6 -23 5 -23 -89 -23 l-96 0 11 28 c23 61 96
82 143 40z"/>
<path d="M12843 935 c-53 -23 -70 -78 -34 -114 10 -10 45 -27 77 -36 85 -25
103 -45 68 -79 -20 -21 -93 -21 -122 0 -12 8 -27 12 -32 9 -41 -25 51 -72 122
-62 78 10 113 83 64 132 -21 21 -81 45 -112 45 -6 0 -18 8 -27 18 -42 46 55
86 112 46 15 -11 26 -13 33 -6 15 15 1 32 -38 48 -41 17 -70 17 -111 -1z"/>
<path d="M13243 935 c-92 -40 -100 -219 -12 -266 38 -20 95 -16 128 9 l31 23
0 -26 c0 -33 -24 -81 -45 -89 -34 -13 -93 -6 -118 14 -22 17 -26 18 -31 4 -11
-27 -7 -32 39 -49 56 -22 124 -13 163 20 l27 23 3 171 c3 167 3 171 -17 171
-12 0 -21 -7 -21 -15 0 -13 -6 -12 -40 5 -46 23 -63 24 -107 5z m115 -45 c31
-19 32 -21 32 -90 0 -62 -3 -71 -23 -85 -47 -30 -82 -30 -117 2 -28 25 -33 37
-34 75 -2 98 65 145 142 98z"/>
<path d="M13595 930 c-47 -24 -45 -24 -45 -5 0 8 -9 15 -20 15 -19 0 -20 -7
-20 -140 0 -133 1 -140 20 -140 19 0 20 7 20 105 l0 105 33 20 c38 24 66 25
93 6 16 -12 19 -29 22 -125 3 -101 5 -111 23 -111 18 0 19 8 19 114 0 63 -3
122 -6 131 -7 18 -55 45 -81 45 -10 0 -36 -9 -58 -20z"/>
<path d="M13880 933 c-51 -26 -80 -76 -80 -136 0 -112 99 -177 204 -133 39 16
53 33 38 48 -7 7 -18 5 -33 -6 -37 -25 -101 -21 -132 9 -13 14 -27 34 -30 45
-5 19 0 20 109 20 l114 0 0 31 c0 41 -26 94 -55 113 -39 26 -95 29 -135 9z
m114 -45 c13 -13 27 -33 31 -45 6 -23 5 -23 -89 -23 l-96 0 11 28 c23 61 96
82 143 40z"/>
<path d="M16398 936 c-16 -8 -28 -11 -28 -5 0 5 -18 9 -40 9 l-41 0 3 -142 3
-143 38 -3 37 -3 0 93 c0 51 4 98 8 104 11 16 51 36 61 29 12 -7 54 52 46 65
-9 15 -56 12 -87 -4z"/>
<path d="M16550 933 c-66 -34 -95 -135 -59 -208 32 -67 131 -95 214 -61 40 17
41 22 16 53 -18 22 -20 22 -50 7 -45 -23 -111 -3 -111 32 0 11 22 14 100 14
l100 0 0 30 c0 111 -113 183 -210 133z m112 -70 c29 -26 21 -33 -42 -33 -62 0
-71 7 -44 34 20 21 63 20 86 -1z"/>
<path d="M16861 932 c-57 -28 -76 -64 -76 -138 0 -60 3 -66 37 -101 31 -31 44
-37 93 -41 40 -3 67 0 96 13 21 10 39 20 39 23 0 3 -9 16 -21 28 -20 21 -22
21 -60 6 -45 -17 -80 -8 -99 28 -10 20 -8 20 90 20 l100 0 0 43 c0 105 -105
168 -199 119z m100 -62 c10 -6 19 -17 19 -25 0 -12 -14 -15 -61 -15 -61 0 -63
2 -36 38 12 15 51 16 78 2z"/>
<path d="M17205 934 c-19 -10 -31 -11 -33 -5 -2 6 -19 11 -38 11 l-34 0 0
-200 0 -200 40 0 40 0 0 65 c0 60 9 80 25 55 3 -5 28 -10 55 -10 41 0 55 5 84
30 84 74 67 215 -30 256 -43 18 -72 18 -109 -2z m98 -86 c38 -45 1 -128 -58
-128 -31 0 -75 41 -75 69 0 78 85 116 133 59z"/>
<path d="M13070 800 c0 -133 1 -140 20 -140 19 0 20 7 20 140 0 133 -1 140
-20 140 -19 0 -20 -7 -20 -140z"/>
<path d="M14870 936 c0 -2 25 -62 55 -134 30 -72 55 -138 55 -146 0 -33 -24
-67 -52 -73 -19 -4 -28 -12 -28 -24 0 -23 29 -25 69 -5 27 15 33 27 168 354
13 31 12 32 -11 32 -21 0 -29 -12 -68 -110 -23 -60 -45 -110 -48 -110 -3 0
-25 50 -50 110 -38 96 -47 110 -67 110 -13 0 -23 -2 -23 -4z"/>
<path d="M17440 795 l0 -145 35 0 35 0 0 145 0 145 -35 0 -35 0 0 -145z"/>
<path d="M15790 775 c-80 -34 -207 -50 -300 -38 -41 6 -77 8 -80 6 -11 -10 90
-90 127 -101 56 -17 136 -15 181 4 47 19 98 68 123 117 22 43 22 43 -51 12z"/>
</g>
</svg>
